<?xml version="1.0" encoding="utf-8"?>
<!-- Generator: Adobe Illustrator 17.0.0, SVG Export Plug-In . SVG Version: 6.00 Build 0)  -->
<!DOCTYPE svg PUBLIC "-//W3C//DTD SVG 1.1//EN" "http://www.w3.org/Graphics/SVG/1.1/DTD/svg11.dtd" [
	<!ENTITY ns_extend "http://ns.adobe.com/Extensibility/1.0/">
	<!ENTITY ns_ai "http://ns.adobe.com/AdobeIllustrator/10.0/">
	<!ENTITY ns_graphs "http://ns.adobe.com/Graphs/1.0/">
	<!ENTITY ns_vars "http://ns.adobe.com/Variables/1.0/">
	<!ENTITY ns_imrep "http://ns.adobe.com/ImageReplacement/1.0/">
	<!ENTITY ns_sfw "http://ns.adobe.com/SaveForWeb/1.0/">
	<!ENTITY ns_custom "http://ns.adobe.com/GenericCustomNamespace/1.0/">
	<!ENTITY ns_adobe_xpath "http://ns.adobe.com/XPath/1.0/">
]>
<svg version="1.1" id="Layer_1" xmlns:x="&ns_extend;" xmlns:i="&ns_ai;" xmlns:graph="&ns_graphs;"
	 xmlns="http://www.w3.org/2000/svg" xmlns:xlink="http://www.w3.org/1999/xlink" x="0px" y="0px" width="400px" height="200px"
	 viewBox="0 0 400 200" enable-background="new 0 0 400 200" xml:space="preserve">
<metadata><?xpacket begin="﻿" id="W5M0MpCehiHzreSzNTczkc9d"?>
<x:xmpmeta xmlns:x="adobe:ns:meta/" x:xmptk="Adobe XMP Core 5.5-c014 79.151739, 2013/04/03-12:12:15        ">
   <rdf:RDF xmlns:rdf="http://www.w3.org/1999/02/22-rdf-syntax-ns#">
      <rdf:Description rdf:about=""
            xmlns:dc="http://purl.org/dc/elements/1.1/"
            xmlns:xmp="http://ns.adobe.com/xap/1.0/"
            xmlns:xmpGImg="http://ns.adobe.com/xap/1.0/g/img/"
            xmlns:xmpMM="http://ns.adobe.com/xap/1.0/mm/"
            xmlns:stRef="http://ns.adobe.com/xap/1.0/sType/ResourceRef#"
            xmlns:stEvt="http://ns.adobe.com/xap/1.0/sType/ResourceEvent#"
            xmlns:illustrator="http://ns.adobe.com/illustrator/1.0/"
            xmlns:xmpTPg="http://ns.adobe.com/xap/1.0/t/pg/"
            xmlns:stDim="http://ns.adobe.com/xap/1.0/sType/Dimensions#"
            xmlns:xmpG="http://ns.adobe.com/xap/1.0/g/"
            xmlns:pdf="http://ns.adobe.com/pdf/1.3/">
         <dc:format>image/svg+xml</dc:format>
         <dc:title>
            <rdf:Alt>
               <rdf:li xml:lang="x-default">Web</rdf:li>
            </rdf:Alt>
         </dc:title>
         <xmp:CreatorTool>Adobe Illustrator CC (Windows)</xmp:CreatorTool>
         <xmp:CreateDate>2015-05-23T17:44:25+02:00</xmp:CreateDate>
         <xmp:ModifyDate>2015-05-23T17:44:26+02:00</xmp:ModifyDate>
         <xmp:MetadataDate>2015-05-23T17:44:26+02:00</xmp:MetadataDate>
         <xmp:Thumbnails>
            <rdf:Alt>
               <rdf:li rdf:parseType="Resource">
                  <xmpGImg:width>256</xmpGImg:width>
                  <xmpGImg:height>128</xmpGImg:height>
                  <xmpGImg:format>JPEG</xmpGImg:format>
                  <xmpGImg:image>/9j/4AAQSkZJRgABAgEASABIAAD/7QAsUGhvdG9zaG9wIDMuMAA4QklNA+0AAAAAABAASAAAAAEA&#xA;AQBIAAAAAQAB/+4ADkFkb2JlAGTAAAAAAf/bAIQABgQEBAUEBgUFBgkGBQYJCwgGBggLDAoKCwoK&#xA;DBAMDAwMDAwQDA4PEA8ODBMTFBQTExwbGxscHx8fHx8fHx8fHwEHBwcNDA0YEBAYGhURFRofHx8f&#xA;Hx8fHx8fHx8fHx8fHx8fHx8fHx8fHx8fHx8fHx8fHx8fHx8fHx8fHx8fHx8f/8AAEQgAgAEAAwER&#xA;AAIRAQMRAf/EAaIAAAAHAQEBAQEAAAAAAAAAAAQFAwIGAQAHCAkKCwEAAgIDAQEBAQEAAAAAAAAA&#xA;AQACAwQFBgcICQoLEAACAQMDAgQCBgcDBAIGAnMBAgMRBAAFIRIxQVEGE2EicYEUMpGhBxWxQiPB&#xA;UtHhMxZi8CRygvElQzRTkqKyY3PCNUQnk6OzNhdUZHTD0uIIJoMJChgZhJRFRqS0VtNVKBry4/PE&#xA;1OT0ZXWFlaW1xdXl9WZ2hpamtsbW5vY3R1dnd4eXp7fH1+f3OEhYaHiImKi4yNjo+Ck5SVlpeYmZ&#xA;qbnJ2en5KjpKWmp6ipqqusra6voRAAICAQIDBQUEBQYECAMDbQEAAhEDBCESMUEFURNhIgZxgZEy&#xA;obHwFMHR4SNCFVJicvEzJDRDghaSUyWiY7LCB3PSNeJEgxdUkwgJChgZJjZFGidkdFU38qOzwygp&#xA;0+PzhJSktMTU5PRldYWVpbXF1eX1RlZmdoaWprbG1ub2R1dnd4eXp7fH1+f3OEhYaHiImKi4yNjo&#xA;+DlJWWl5iZmpucnZ6fkqOkpaanqKmqq6ytrq+v/aAAwDAQACEQMRAD8AgeenPnbsVdirsVdirsVd&#xA;irsVdirsVdirsVdirsVdirsVdiqtHZXkltLdRwSPa25VZ51RjGheoQOwFF5U2r1yJmAQL3LIRJF1&#xA;sFHJMXYq7FXYq7FXYq7FXYq7FXYq7FXYq7FXYq7FXYq7FXYq7FXYq7FU01Ty/d6fpel6hN/dapHJ&#xA;JEKbj0340+lSrfTmn7P7axarU58EPq08og+fFG/sPFH4OXn0cseOEzyyA/Yf7ClebhxHYq7FXYq7&#xA;FXYqyHy5ZwXGg+aHeFJZ7exhlgZlDNGfr1urshO6/AxBI7HMTUTIyY99jI/7mTlYIgwntuIj/dBl&#xA;/lmx8twaRZXOs6dHLav5euZbxhGvrD1NYFuLhCQT6scL/A3Wgp0zX6meQzIhLfxBXd/d3XuJ5udp&#xA;4YxEGY28M3/p6v31yR03k7TtK0YWlzb2s80ekaxMl/6SsJQJYXtrgPRif3UgKncrWmVDVynOwSBx&#xA;w27tjY+bYdLGEKIB9E9/iKPyUgLQ+eZvy9bTLZfLoLwKTCv1hXW3Li/+sD95z259ePDalMlv4A1H&#xA;EfE589uf01y8u+0beN4HCOD3b8vqv8bI208p+X9Tu/Lb2dlAt7p+m2E+r2fppwuba5tQfrBSlGdJ&#xA;jSQkbhlPbKparJAZLJ4ZSkInuIPL5cmcdNCZhQFxjHiHeCOfz5sN8i/UotD1+8uPqUcsBs1hudQt&#xA;FvUT1HkDBUMcxBanUDNjreIzhEcW/FtGXD3eYcHR0ITJ4dq5i+/yLd3aWs9t5XuRbwO19qV4s8sM&#xA;CxRzAXEXFeAVfgAb4UpsDSmMZkHILPphHry2P4tZRBEDQ3kenPcM1ttH0MX08P1bTPqkut63HNYv&#xA;apJd3NvbemY4LFxH8DIpPACRNyKV6ZrZZZ8INzvw8e97Am95b/oLsI4oWRUa457VuQK2j/aGMu9n&#xA;ot95Y0m20e0vrPVLSzub03EEc1xcven40Sdhzj4V4L6ZWjCpzNAlkjkmZGJiZAUaA4fLr37uGSMZ&#xA;hERBEgCbFk359O7ZOLzTvK+i6etvdHTf0SkmrwSiaBZNRuPRuJYrcwTLGzgjivxcwB3zHhky5JWO&#xA;Lj9B5+kWATYv9DfKGPHGjw8Pr6eo7kCjX6Uk81LbjS9M0mwGmrc3en6WRZx2CLevLNBC5b62Ihu7&#xA;mp/eb1pmTpb4pTlxUJT34vTQJ/hv9Dj6iuGMY8NmMduHfcDrX6UV+ZvlWxsNDsp7C2tof0TMNLvJ&#xA;baSGRp/3KslxN6LMVdpUmHxgHpkOztVKUyJE+scQu9t+Qvyrkz1+nEYAxA9J4TVb7czXnfN5pm5d&#xA;S7FXYq7FXYq7FXYq7FXYq2qlmCilSaCpAG/iTsMEpULSBb0Hyv8AlVrV1DfTajbIkT2bnTXWaKRX&#xA;uGoYyDG7jj7nPMPaH/gi6TDPFDTzJkM0fFBhOJjjH1CpRG/6no9B2BlmJGY24Dw7g3LpyLEtc8s6&#xA;1oTxx6rClvLIKpGJoZHp4lY3cge5zt+yO39J2jEy00jOMeZ4JxHuuUQCfIOm1Why6cgZBRPmD9xV&#xA;fKOpalZa5bLYrHI9zIkLQToJInDMB8QPhXqKEZT7S6DT6jRzOYyiMcZS4oHhkKHQ/oNg9zPs7POG&#xA;WPBR4iBR3D13zV5x0WbQtSj0Ga0udR0tRxidFdVjqFd4Qw4twHhUCmeG+zvsvrIa3DLWxy48GoJ3&#xA;EiCZbmMZ16o8R76JvbrXZ6/tLFLDMYTGU8fl06mPQ08LmmlmleWVi8jks7HqSc+jsWKOOIjEVEcn&#xA;gJSMjZ5sy8kfl5q+q6hp97cWySaG0ge4mWaFwVQcijKjlwWI4kUqK5wXtb7b6XR4M2HHMx1gjUYm&#xA;ExuduIEx4dvqBujW1u77L7HyZpwnIXivc2PlzvyS3zN5F17QGmmu4VjsRK0dtM00PKRQ1FKxh+Zq&#xA;N/s7d823YHtfou0hGGKRlm4AZREJ1E1uDLh4ee3Pfpbi67srNp7MhUL2Nx3+F39jHM6p1jsVdiqO&#xA;0fW9U0a7N3p0/ozMjRPVUkR43+0jpIGR1NOjDKs2GOQVIWGzFlljNxKve+adevZ7me5uy73VuLOY&#xA;BERPq6usgiREVURQ6A0QDIw02OIAA5G/j3s56iciSTzFfDuXDzZ5iFnFZfXnNtDbS2UUZCnjbzkG&#xA;SMEitCVHy7YPyuPi4q3JB+IX8zkqr2qvgVdvPXmt9OOntfkwGH6sz+nF65gpT0jccPWKU2486UyI&#xA;0WLi4q3u+tX31yv4MvzmXh4b2qul13XzQ8HmrzDb39vqEN68d5a262cEqhQVt0j9JY6UoQE23yct&#xA;LjMTEjYm/jzYjUTEhIHcCvgpaT5g1XSknjsZVSO64evHJFFMremSUqsquNuRw5cEMlcQ5eZH3Mce&#xA;aULrr+OqN0/zz5o04Sizu1iWWY3PH0IGCTMKGSENGRE1AN4+OV5NFinzHSuZ5ee+/wAWyGryR5Hr&#xA;fIc/Lu+CDt/MWt28lnJFduslhPJd2j7Fknl4GR6kEsW9Na8q5ZLTwN2PqFH3D+1rjnmKo/SbHvRl&#xA;j5581WNotpbX3CKMuYCY4mkh9Td/QlZDJDX/AIrYZXPRYpGyPv3945H4tkNXkiKB+7b3d3wSq41G&#xA;9uba3tp5TJDaBxboafD6jF336mrGu+XxxxBJA3LTKZIAPRNE87eZUW1C3MfKyEK2spt7cyoLbj6N&#xA;JDHz+DgtN8oOjxm9ud3uevPa24avJtvyqth05dEuTVtRS2vbZZ29DUCjXqGh9Ro2LoxJFahidxlx&#xA;xRJBrePJqGSVEXtLmg8sa3Yq7FXYq7FXYq7FXYq7FXYq9A8qfmTB5X8v21jbwNfXEk7z3gkYokaE&#xA;8RHF1+IheVaU3755j7R+wk+19dPNkmMMIwEYUAZSPPil5Anhq7IHTr0fZ/bY0mEQiOMk2e4eQ+9i&#xA;nmi+tdQ8wX19aPJJb3UnrIZa8xzAYoa1+wTx+jO19ntHl02hxYcoiJ448J4eR4duIf1vq79993T6&#xA;/LHJmlOJJEje/n0+HJKwSDUGhzcEW4rgSOmEhDWKsv8AI/nODytaajcKjXN/dcI7a2JKwqFqWkk8&#xA;eoCgb9emcN7Xey0+2MuHGSMeHHxSlLYzN1UY93W725bGnddldpjSRnL6pyoAdPeUN578y2nmPUbb&#xA;VIBJFK0Cx3NrISwjkQn+7bpxYH23rXMv2P7By9lYJ6afDKImZRmNuKJ/nDnxA+/aqOzV2trY6mYy&#xA;CweGiO4+XkxnOudU7FXYq7FXYq7FXYq7FXYq7FXYq7FXYq7FXYq7FXYq7FXYq7FXYq7FXYq9I/L3&#xA;8tzf3UOqXVxa3ekmORWSFyz83QoFdWVeJXlXfPKPbb26/LY5abHDLi1PFE3KIAoSu4kSNg1W3m9P&#xA;2P2L4khkkYyx0eR6112Yt5o8m33lx1jvru1edz8NvC7NLx/nZeI4j5nOx9n/AGow9qgyw48ogOcp&#xA;RAjfcDxbn3D306nXdmz0xqco33A7/ckGdM652KuxV2KuxV2KuxV6T+X35bfX7hdSurm1u9KeGVAI&#xA;HLt6kiGMBlZVKlQ5bfetM8m9tfbv8tA6fHDLj1InA+oADhjLi2IkeIGq22IJeo7H7E8SXiSMZY6P&#xA;LvIru2Yn5n8o3vlyVYb66tZLh9xbwuzyBf5mHEBR8znbdge0uHtSJnhx5RAfxSiBEnuB4t/gNurp&#xA;9d2dLTGpyjxdwO/3JFnRuvRdppGrXlvLcWdlPc28H9/NDE7olf52UEL9OVyywiQCQCfNsjilIWAS&#xA;Aum0TWoLGLUJ7C5isJ6ejdvDIsL16cZCOLV9jiM0DLhEhxDpe6nFMDiINd9Kk/lvzFb+n9Y0u8h9&#xA;VHli9SCVeUca83daruqr8RI6DIx1GM8pR+YScGQc4n5LrDyx5k1CJZbDSby7icFkkgt5ZVKhipIK&#xA;KRTkpHzxnqccDUpRHvITDT5JC4xJ+BW2nlzzDewPcWel3dzAjcHmhglkRX6cSyqQD7Yz1GOJoyiD&#xA;7wiODJIWIkj3K1x5P822xiFxol/CZ3EUAktZl5yEFgiVUcmopNB4ZGOrwm6nE15hlLTZRzjLfyKA&#xA;vtPv9PuWtb+2ltLlaFoJ0aNwD0qrgHLYZIzFxII8mucJRNSFFFyeWPMsb26SaTeI95/vIrW8oMu1&#xA;f3YK/Ht4ZAanGbqUdue42ZnT5BXpO/LY7ui8seZZb6XT4tJvZL+BQ81otvK0yKaUZowvJRuOoxOp&#xA;xiPEZR4T1sUo0+QnhETY6UVGXRNZiikmlsLmOGIFpZGicKqiQwksSKACVSn+tt1yQzQJoEfP4/du&#xA;xOKYFkH5fD79lNNM1KSQxpaTPIIfrJRY2LeiF5+rQD7HD4uXSm+E5Ijexzr49yBjkeh7/g2ml6m6&#xA;2rJaTMt85jsisbkTuGCFIqD425ECi98TliL3Hp5+XvUY5bbHfl5+5UtdC1u7s5L210+5nsoq+rcx&#xA;QyPEtOvJ1BUffkZZ4RPCZAHutMcM5CwCR7lN9L1JBdl7SZRYMEviY3HoMW4BZdvgPMcaN32yQyR2&#xA;3Hq5efuQcct9jtz8veqzaDrsFgmoT6ddRWEoDR3bwyLCwboVkK8TWvjkRngZcIkOLuvdkcMxHiIP&#xA;D30tm0PWodPj1GbT7mPT5aelePDIsLV6cZCOJr88RmgZcIkOLuvdBxTEeIg8PfWyCy1rdirsVdir&#xA;K/K3nqbyzpNxDpsCvqV3MrzXE28axRj4UVQQSSS1TX+zi/aH2Qh2vqYS1EyMGKBEYx+oylzkT0Aq&#xA;NDez5bHb6DtU6XGRjHrkdyeVDp96W+bNbt9c1h9VigNvJcohuoa1UTKODFD/ACsFB3zbezfZOTs/&#xA;SDTSlxxxylwS68BNji8xZHuA9wxu0NVHPl8QDhMgLHn5JNm+cF2KuxV2KuxV2KuxVlfljz5ceWdI&#xA;lt9MgVr+6nElxcTboI0ACRqoO9fiqSe/05xXb/sdDtbVRyaiZGHHDhjGPPilzkT8qHluejuND2tL&#xA;S4zHGPXI2Se4dEr806zba1rMuqQwG2e6VGuIa1USheLlD3Vqct/HNz7O9l5NBpI6acvEGMkRl14b&#xA;sX5i626AOJr9THPlOQDh4uY80ozeOEzPyx5mstE8seuEW41S21aK6s4DKY+JSBx6jqvxOlditRXv&#xA;4ZrtTppZctcomBB283P0+cY8d85CYI+TJNP81eWoV09ppY1a0tdGlvyH5rPFbTIZrcQ/YEkRKybb&#xA;kKR3zCyaXKeKupnXlY2N9x5fFy4ajGKvoIX50dxXeOfwSqPW7jyzYajcNrVvqupXWoW9zp6wy+uC&#xA;YS5luJB0jEsb+mUb4mBIIoMvOEZpRHAYxESD058gO+jvbSMpxRJ4hKRkCOvLmfjyR1xq+l3N/wCY&#xA;rK0eyl0+3ltLbRrea7NrB9VtvWFY5FkjLbvyb4tyxOVxxSEYSPFxESMvTZs10r8U2SyxMpgcPCKE&#xA;d6FC/NIvMZXUNP0+60/VLeK306wS2l043HCSOaGvremhP7wTP+8DLWtd+mZWn9EpCUTcpXddDyvu&#xA;rk42f1RBjIVGNVfXr775ppb6/ZTRR2Q1NLe6uvLqWUF48h4RXIuDI8cjfsGSJShY9K+ByiWCQPFw&#xA;2Bluu8V9tHdujmB24qJx1fnf6Qhl1rSNN1HyZDqN1HqP6EkL6jNCfXjjief1I4VfpJ6S/FtUb0GT&#xA;8Gc45TEcPHy6dOflbDxYwljEjxcHPr15edO0+NrWbXIbvX7OW91m1kistTW5DgyetFK/qn7UXrxR&#xA;slXp4HHIeIQIhKoHcV5Ebd9HdMBRkDMXMbG/MH4WNkb/AIg0bTdAXT72aHV72z00QzCOd1VjJfJN&#xA;HBHPGQz+jHVjxNOo6DK/AnPJxRBhEy7v6NXXmz8aEIcJ9REe/wDpXV+StpHnHSNO8qwlmhnY2HoX&#xA;Wls9WeKXVp3lh3+LkYJOQPUbNkMuknPKeY9ViXugKPzZY9VGOMcj6dx/nmx8kVB5i8n+XNSm1K2v&#xA;jqETRabp9qsHD1mtIokluPVRvsh+CRsOv2hkJafNmiIkcP1yN8rJoV9p+TMZ8WKRkDxfSPhW/wCp&#xA;V0jW/Kmn3mgeX7nUIJdKsb+W7ttQRlb0Jbe+MsDs3ZJ4fhb5g/s5HLhyzE8gieKUQCO+40fkWWLL&#xA;iiYQJHCJXfdUrHzDFdSeHUrPRLyy1O3hs9OsYbe406WcQyxyxGs/GJqc/Wb46rWtd+mZ+MGBnGUS&#xA;TKRN1ex5b+XJwpkTESJCoxAq/nt582Ttr/lFLrWdNmvleLzVqWpPc3ETI0EcTSvFZvMx6BHrMtOx&#xA;BzB8DMRGQH91GFd/K5V9zmeNiuUSf7yUvd/Rv70skvrC1uU1aXVrY2B8vw2EmnxTCWWef9HC3ELR&#xA;Jy4iOY8iXoBTbfLxCUhwCJ4vEMrqgBx3d+Y7mkziDxGQrwwKvmeGqr3tavqen/pDzJra6tBNper2&#xA;LQWGnpJWesgUQQvb/wC6xbcerbfD8Na44scuHHDhIlCVk9PM314v7Vy5I8U58Q4ZR2HXyFeTzbNy&#xA;6l2KuxV2KonUdOu9Ouja3aenOERyh7CRBIv/AArDMTQ67FqsfiYjxQuQv+rIxP2htzYZY5cMhR2+&#xA;0Whsy2p2KuxV2KuxV2KuxV2KuxVFDTrs6a2pBP8ARFmFuZP+LGUuB/wK5hnXYhqBp7/emBnX9EER&#xA;v5lt8GXh+J/DdfHmhczGpk/lfyUNdshOLxoJZbyOwtoxA0qmWVC4aR1Yemgpu1DTMLU6zwpVV+ni&#xA;O/4suZp9L4gu63rkrQeRbeR7fT5NUEfmG7tReW+n+iTCQ8frRxPcc/hlkjoyjgV3ALZGWtIuXD+7&#xA;Bq737rruB8/gyGkBqPF6yLqvjV99eSn5h8kppGlC9F60sii0MsUkBhQ/XYPXX0JC7CXgNn2FMODW&#xA;eJPhr+d1v6TW46eTHNpOCN33dO8Xt3olfy85Np8X1q4WW/t4rgSvZstqBLZm84JP6lHYKOPTrXwy&#xA;H5/6jQ9Jr6t/q4eVM/yXLc7i+W308XNI/LGg/pzU2szM0Cpbz3LukZmcrbxNKVWMFeTMEoBXMnU5&#xA;/CjxVe4HdzNOPp8PiSq62J+QtND5R0i3gF5qWqzWNlcTtbWLPZMZnaNEaV5IfVX040MqivJmPZcp&#xA;/NTJqMRKQFn1bda3rc7eXvbvy0QLlIgE0PTv57XsN0bdflVq9tBbyvcxOX1H9G3Sxgt6QMqxJcDf&#xA;442LddqVA75VHtOBJFfw8Q89rr3s5dnSAG/8XCf1+5DxeQraVtOs01ULrGqwPPY2jwEROVllhWMz&#xA;BzR3aA8fgpuN8mdcRxHh9ETRN+QPL497EaMGhxeqQ2FeZHP4LP8AA0HL9HfpMf4i+qfXf0b6J9Kn&#xA;o/WPR+sc/wC+9L4uPDjXblXD+dP1cP7viq786uu6/P4I/KD6eL11dV5XV99eXxQ1r5REvlX9PvNc&#xA;cWe4jSKC1aZFNsiNWaUOojVvVFCQehyctVWXw6HTma53yHXkxjprx8dnr0vl3noiV8gzHW9W0r66&#xA;vLSruCzaX0zRzPcrb8gOW1OXKmQ/PDgjOvqiT8hbL8meOUb+kgfM0rT/AJfwQhrqXUni0uCCSe8m&#xA;mtmjuIxHMsChbcuefqyOBGeYB+LccTkY68nYR9RNDfblfOug57MjogN+L0gb7b865efRuP8AL+zk&#xA;tG1KPVHk0hrdLi2uI7UvMxec27RvAJPgZJB8VGbbcVxOvIPDw+u6O+3K+dKNECOLi9NXy351ytdq&#xA;H5aXdjagtPLcXj3E9pGltbNJb+rDcG2Ae45qE5sNqrgx9oiR5ACgdzvuL5JnoDEc7NkbDbY1zQOp&#xA;eULGC11NtP1UX95opX9JwCExpxMghZ7eTk3qokjKCSq9aioy3Hq5Ex4o8Iny38r37tve15NMAJcM&#xA;rMOe3w279/cqweR7W4jsLeLVANY1Kz+u2lk8BWNx8ZEXrhz8bemaVQD3yMtaQSTH0RlRN/bXxSNI&#xA;DQ4vVIWBX6UN5m8ojQ7S2laa4mkuEgk5NatFb0uIBPRLguwdl5BSOPj4ZPTarxSRQ2vrvsa5MdRp&#xA;vDANneum24vmxzMxxHYqy/8ALe30HUdbh0nVNJF8bgsYrlZZUaPgpY8lV1Rlovh9+cN7dZtbpdHL&#xA;VabUeDwVceGBErNbExMhLfvr3c3ddiww5Mox5MfFxdbO321TNPza/wAMxWcGqjTY9RvbwtbR3wmk&#xA;EUfpfzCJ1DN1A+W/SmcB/wADb+UZ5ZabxpYMWKpnHwR4pcXcZxJjHkT79udu89ofAERk4BOUvTxW&#xA;aFe47l45nvDxLsVdirsVdirsVdirsVRFjPbwXUctxbJeQqfjt3Z0DD/WjZWH35javDPJjMcczime&#xA;UgIkj4SBB+TZinGMgZDiHdv+h7xb6P5QbyYLRdMC289v+lf0N67+uzBA1Qxf1OwWtfbPmzN2p2qO&#xA;1vFOe5wyfl/H4BwAcRHLh4e+VVfUd76FDTaY6Xh4PSY8fBe/L335PCNRubW5vJJbS0Sxt2P7u2R5&#xA;JAo92kLMT4/qz6R0ODLixCOXIc0+siIxv4RAAHd95fPs04ykTGPCO7c/ejrbzLfWvlyfRLZnhjub&#xA;lbieWORk5qsZT0mUU5Ka13yctPGWQTO9Cv2so5yMZgOptNYfPUMf1e+bTFfzDaWos7fUzM3DikZh&#xA;jlaDj8UqR0AbnTYGmUHRE3Hi/dk3Ved1fdfk3DVgVLh9YFXfw5d9IfWfOtzq1lcWdxBWCRbL6qpk&#xA;LfV3s4Ft2aOo29ZRVwKb060yeHRjHISB39V+fEb+zoxy6ozBBH82vKhX2ou3882UV9p9+dNle7s7&#xA;eG1kBuz6UiQ2f1Oqx+l8DMo5Vqd8rlopGMo8QoknlvvLi72cdWARLh3AA5/0eHuSyw8w22l6pPe6&#xA;XaPbpLaXFokbz83RriFoTIJAibrz5AU+nL54DOIjI36geXcbpphnEJExFbEc+8Ur2Xmu1fTY7DXr&#xA;BtXjt53ubWQ3DwyK0qqsiO/GQvG/prtsfA5CelPFxY5cFijtf4O7OGpHDwzHFRsbppB+amrx6tZ6&#xA;lJbRyPBNdSXUAJWKeO6dHMXED4RGY14HehAPbKJdmQMDG+YFeVdfje7bHtGQkJVyJvzvoho/PkEX&#xA;1C6j0tf0xplu9tZXjzM0cfOWWUSeiFWsiGduJLU6GmTOhJscXokbIryAq+7ZiNYBR4fVEUDfmTy+&#xA;K0+eYSfr/wCjFHmI2n1L9JiZuHH0fq/rehx/vfR+HlzpXfjXD+SP08X7viuq87q+60fmx9XD66q7&#xA;8quu+kDF5ktP8Mx6Lc2csjW8lzLb3EVwYgGuUjU+pHwbmFMINOQ75adOfF4weddO6/PzaxnHh8BH&#xA;K+vfX6k1n/MSN7qS+g0tYdQvbm1u9Vm9ZmSZrWQS0jQqPS9SQBm3b2yiOg24TL0gER25Xt8a+Dcd&#xA;bvxCPqJBO/OvuUofzAle1+qanZfpCCWOa3vC8rLLJBJKk8KiSjFWglQlG32NKYToADcTwnYjbrVH&#xA;5jmga01UhxDcH3XY+Ral/MG6i06bTdKt20yzNslraelO/qxqJzPKzygKZGlZiG+yKbUwjQAyEpni&#xA;N2dtuVDbpSDrSImMRwiqG/nf2oeHzfEmj6fZtay/XdLMj2d4lxxX1HmMytJEY258W/yskdIeORsc&#xA;MuYryrnbEan0AVvHkb875LtT84Wc9rqS6fpS6fdayR+k51maRSokEzJBGQvpI0iqSCW6UrTHHpCD&#xA;HilxCHLbyrfv29ycmpBEuGPCZc9/jt3KkXniCCGymh0wDWLCy+oWt+8zMiL8Y9VYQq/vAJDQliB1&#xA;pkToiSQZeiUrIr7L7tkjVgAER9UY1d/o70F5k8yWmtJDJ9Tlt7yOO3ikkNwZImW3gWAcYeC8SwQG&#xA;vI98t0+nOO97G/Tfc3ztrz5xkrajt17hXJIcynGdiqva3t3aGQ20rQtNGYpGQ0JRqclr1oab5j6j&#xA;SYs3CMkRIRkJC/5w5H4dPPfm2Y8soXwmrFfBwvbsWbWQmb6o7iVoK/B6iggPTxoaVxOkxHKM3CPF&#xA;EeHi68J3q+6xdKMsuHgv03deahmQ1uxV2KuxV2KuxV2KuxV2Koz9Map+kBqP1qQXykFbgMQ4oKAA&#xA;joKbU6UzA/kvTeB+X8OPgn+Gtv7et8735t/5nJx8fEePvQhNST4+G2ZwFNLL/LwaDyjJd2ul2+o3&#xA;8mqRWwSe3FwTG0DtwUU5CrAfZIOYGffNRkYx4CdjXVzsO2KxESlxVyvoyTzRo/l3SdEu0s4oYHa9&#xA;v4fTNoLyQ+nDbkwLct8UPovI6h/p7ZhabLkyTF2fTH+Lh6y3rrdDZytRixwgar6pdL6Da+lLp/LW&#xA;n6hq+j6ultbWvlgNdTyWstt9TlijswrvBdE19ZeXGP1ampY1p0xjqJQhKFk5dhd8QPF1Hd30k4Iy&#xA;lGdAY9+lcuh7+60RZ+XtBttQ1W4ZdPjsr660mbT5Z4BdQCG+FwZYIaA8R6sZQNVaceoyE8+QxiPV&#xA;xRE7o0bjw0T8N/iyjggJSPpomFbWPVdgfHb4IdtD0Q+XoreWytrWd7a6lntDGPrkXDVpIDN9bIpx&#xA;t4xRl5GoHSm4mM0/EJBJFjf+E+gGuH+kWPgw8OiADR26j1kXfk3aaTZXfmHWdKvtCtrPTtHu7ZLG&#xA;VYeD1+vQwJFJKd5/XhdmPMmvUYJZZRxxnGZMpg3v/RJuulFY4xLJKJiBGJFbf0gPjYYwNFj+pebz&#xA;9S/eWzxfUv3ZqgN4EPp7fy7bdszvG9WLfnd/6Vw/C2ybcuX+mT220mxXVbDQG0mB9EudKS7udUaL&#xA;9/ya1M0t0Lg/EnozVThXj8PEiuYsssuCWTiPGJ0I3t9VAV5jr8XJjjHEIcI4DC768rJvyKh5K03S&#xA;p/KUbT21rcXVxeajEtvLCGuLkQ2MMkcMM9P3JDsSDyG52r0yWsyTGXYkARj12FyO5HVjpYROLcAk&#xA;mXTc1EbA9EyudD0CfV9O09YYZWSzhul0qOyEBmnXS/rCRteoQ0nrTUqvetOoymObIISlZ+oji4ro&#xA;cdfT0oNssMDIRocga4as8F/V5lL9N0aHUrRr7VILKCGazvIwlva/VXt5YJbUuzhkVSUS5HFhXvvl&#xA;uTMYHhiZE8UeZu7Ev1NcMQmLkIjY8hVVw/rR9ppNld+YdZ0q+0K2s9O0e7tksZVh4PX69DAkUkp3&#xA;n9eF2Y8ya9RlUsso44zjMmUwb3/ok3XSi2RxiWSUTECMSK2/pAfGwo6n5K0jU0ludHijgtdV1q0t&#xA;FApys2RLz67EPCMBElH+Tx8Mlj1k4bT3Mccj/W+nhPv5j3scmljPeHKUwP6v1cQ93IqPmbQdFmmv&#xA;tV0m1tzYXmlyvaxWv7yOK5truGFuFB9r0mRj/rHJ6bPMAQmTxCe99QYk/ffyY58MCTKIHCY9O8ED&#xA;7vvebOjoxV1KsOqkUIzcAuqIW4UOxV2KuxV2Ksx8ofl3rGranEl9ZzW+myRSP9aZSqGqH0yrdD8Z&#xA;U/LOE9pvbfS6LTyOHJCeeM4jgBBP1DisdPTY97u+zuxsubIBOJECDv8ADb7Ug1Py3r2lxiTUbGa1&#xA;jLcFeVSqlvAE9c6Xs/t3RayXDgywySq6ibIHn3Ouz6LNiFziYjzS3Ns4rsVdirsVdirsVdirMvKP&#xA;5cazquohL+0mtrBoJJFuXUqhYoRFxbofjZW9wM4L2l9udJosF4ckMmYZIjhBsgcXrsdPSCPIkO77&#xA;O7Fy5p1OJjDhO/w2+1j2p+Xdc0uNZNRsZrSN24o0qlQzdaCvXOo0Hbej1kjHT5YZJAWeE3Q83W59&#xA;HmxC5xMR5pdm1cZPvLcHnG4inh0Ca5jhkkjinSC4MCPJLyMaMOaBiRGxp4AntmLqJYQQcgHxFuTg&#xA;GU2IE/OkXaaH56itbi2tbhorFSq3KR38KW5adWorETCNmdY2qOtBlcs2AkEj1dPSb2+Fs44cwBAO&#xA;39YVv8Vt9pvn+6079I3kl3d2n1USMzXPruto5Dhmj5tIsVVU7rx2GGGTTxlwx4Qb7q3+VWs8ecx4&#xA;jZFd97fqabyt52pDYMGoyCSO1N3DREiR7gMyer+7VVZnqwFKnxx/M4N5fbwn3d26Py+baP2WPf3o&#xA;XVrDzbYq9zqTTqFY2zytNz/3pUzFaqzVSZXZq/Zf4uu+TxTwy2jXfy7tvs+zZhkhljvK+7n37/b9&#xA;qCm17XZ4Le3m1G6lgtCGtYnmkZImXoY1LUUj2y0YIAkiIs89ubA5pkAEmhy3Vf8AFPmb1BJ+l731&#xA;AOIf6xLy4k1pXl0yP5bFy4Y/IJ/MZP50vmVFtd1x7J7FtRuWspXMklqZpDEzseRZkrxJJ3rTJDBD&#xA;i4uEcXfTHxp1w2a7rUIb69gEYhuJIhC5lhCOy8JCAC60OzEKNx4ZMwieY5sRMjkVeXXNbmgigm1C&#xA;5kghKtDE80jIhTZCqk0HHtTpkBhgDYiLPkyOaZFEmve3d69rl43K81G6uW4GKs00kh9M0qnxE/Ce&#xA;I29sYYIR5RA+CyzTlzJPxdNr2uzwW9vNqN1LBaENaxPNIyRMvQxqWopHtiMEASREWee3NJzTIAJN&#xA;Dluox6lqMQcRXUyB2MjhZGHJ2VkLGh3JV2WvgSO+SOOJ5gMRkkORK6z1fVrIKLO9ntgpYqIZXjoX&#xA;oGI4kfa4ivyGCeKEvqAPwWOWUeRIULi4uLmZ57iV5p5DWSWRi7sfEsak5OMQBQ2DGUiTZ5qeFDsV&#xA;dirsVdir0HyH5/tfLGg3AuXlvp5p1Ftp4YhIo1FXk5EELzLdB3HbrnmHth7GZO19bA4xHDCMDxZa&#xA;3nI/TGhueGuZ5CXWqek7J7XjpcJ4rkTLaPcOp+P6Ej/MDXLfWvMDaha3Mk9nNEjQxS1DQbUeLj0F&#xA;GBO3jnRexfZE+z9CMGWEYZYykJGPKe/pnfM+kgb77chycDtfVDPm44kmJAq+nePmxrOtdU7FXYq7&#xA;FXYq7FXYq9D8i/mFaeWPL8kdy0t9cTTj0LFWokMSgcn5MCFLlj8I8O2eW+1/sVl7X1wljEMMIY/V&#xA;kreczyjQ58IA9R5XtdU9L2V2xHS4SJXMmW0e4d/x7mP+ftZg1jzFLf211JcWcyI1ukteUIKjlFxO&#xA;y0evTOo9jeyp6HQRwZIRhlhKQkY8p77Tvrca579NnW9rakZs5nGRlEgVfTy+bHM6p1jOvIesaZYW&#xA;VtPdzJCNP1VLq5DVLNDJbvErBBVnCOKHiKjl4Zq9dilKRAF8UKHvsH8e52OjyxiASfplfwr8fNdo&#xA;HmHRbjQ9RtL6XTNNuJru1nihuLS4ltykMUyMVWBJaPWVdz7458ExOJjxyAiRtIXuR313Jw5oGBEu&#xA;GJscwa5HutV/Tnl20ubHWk1Rbiez0dbBdNhinEjzm2eAiV5I44hFV6nizEjtkfBySBhw0DPiuxyu&#xA;9t7tPi44kT4rIhVb86r3UmF95o8rrrD6rHe2NykmnXFv9WW1u0naR9OMCpcOURWVpRw+Fu/Udcqh&#xA;psvBwESHqBu419d7b9zbPUY+LiuJ9JHI39Nb/FJde1bS7nQL65t51pqC6bDFpy1At5bWJ/WVFbf0&#xA;49gp/wAvqTyzIwYpRyAEfTx799nb4n9DRmyRMCQfq4du6hv8B+lhGbN1zsVdirsVdirsVdirsVdi&#xA;rsVdirsVdirsVdirsVbVSzBRSpNBUgD7zgJoWkB6D5U/KvWLuG9n1G3RIZLNzpsizQyq8709NgYn&#xA;ccR455f7Rf8ABE0mCeKGnnIzjmj4oMJxIgPqFSjHd6Ps/sDLMSMwKMDw7g79ORLEdc8tazoUiRap&#xA;ClvLIKrEJoZHp4lY3cge5zueyO3tJ2jEy00jOMevBOI91yiAT5B02q0OXTkDIKJ8wfuKV5uHEXvF&#xA;KiI7oVWUFo2IoGAJUkfSCMhHJGRIBsx2Plte/wACCyMSACeqzJsWa+Rfy91XVtS0+9ubdJNDMnO4&#xA;lWaFwQgLcGRHLgsQFIpUVzz72v8AbbTaLT5sOOco6zhqMeCY3O3ECY8OwuQN0a2d72V2PkzTjOQB&#xA;xXubHyq78kr8zeR9d0BpZbyFI7P1WS2lM0JaVQ1FZYw/qdKE/Dt3zc9ge1ui7TEY4ZGWXhBkOCdR&#xA;Nbgy4eHnsPVv0txNd2Xm09mQqN7bjf4Xf2MezqHWuxV2KuxV2KuxV2KuxV2KuxV2KuxV2KuxV2Ku&#xA;xV2KuxV2KuxV2KuxV2KuxV2Ks98qfmTH5Y0C3sbW3a8uJZ3nvPVYqkaE8RHF1+IqvKtKCvfPNPaP&#xA;2El2vrp5skxihGAhDhAJkefFPyBPDXM1zHXouz+2xpcIhEcRMrN9PIfexbzPfWl/r97fWjyPb3ch&#xA;mT1ftqZAGKHc/YJK9e2dn7P6TLptFiw5RETxx4Tw8jw7CQ/rD1fF1GuyxyZpTjdSN7+fT4cmvL9v&#xA;odzfrb6vPNbQS0VLiBQ/Fif2kO5Hy+7D21n1mLAZ6WMMk484yPDY8jyv37eY6jSQxSnw5SYg9Ru9&#xA;Y85+RPK9l5WsWvbqa3t9GjaMSwxq8kpmYGhHSpep8N88U9lfbDtHUdpZRhhCeTVSEqlIiMOAVz8o&#xA;15mhs9j2n2Tp8enjxyMY4hWw3N/teLzej6r+iGEVTwDkFqdq0AFc9/xcXCOOuLrXL4PDSq9uTK/J&#xA;HnOHytZ6hPHG1xqN1wjt4GJEKKtS0klDuakAAe+4zivaz2Vl2xlwwkRDBj4jKQrjJNVGPd1snbcb&#xA;Gnb9l9pjSRmQOKcqodPeUL558yWvmPU4NUhV4pXgWO5tnJYRyISPgboVYU+muZvsh2Fk7L089NMx&#xA;lEZCYyG3FE19Q/nA337VRau1dbHU5BkFg8O47j5eTG86t1bsVdirsVdirsVdirsVdirsVdirsVdi&#xA;rsVdirsVdirsVdirsVdirsVdirsVdirsVdiqIsLtrO9gu1RZHt5FlVHqVLIeQ5AUqKjMbWaYZ8M8&#xA;RJiJxMSRzo7GvNsw5OCYlV0bTebzx5kuYtQgvbpru31JaXEE26BhQo0YFOBUgU47eOaPF7Jdn4pY&#xA;Z4cYxTwH0yjzrqJH+ISBN3vvsQ5su1M8hITlxRnzB/R3UkGdK652KuxV2KuxV2Ksm0bQ5Lzyldy2&#xA;9obm+utTs7G2dULGMMkrPuAaeoxjH0ZhZs3DlAJqIhIn7Pu3czFi4sRIFkyiPv8A2Mk1fyR5evNR&#xA;vTZzSxyyxX02mwQJGLf07Gb6rCzsSDSeSNht3Ncw8WsyRiLHWN3z9Q4j8gXKy6SEpGv6VVy9JofN&#xA;J/Mfke00yzhS2kuZL9tSk0stMgjhmkhVRK8S05hFkcKCSeXt0zI0+tMybrh4eLzF8r+DRn0ggBV8&#xA;XFw++u74o288g+W1aVbTUbpyp1WOJpIYwjHSovWaYlXJETD92Nqlt/bKoa7J1iP4Ov8APNV7+rZL&#xA;R4+kj/H0/mi793REf8qx0uINBd3N3FPaXP1fULkxqIf3VnLeXPoqRUiFYlHIt8degyP8pSO4Aoiw&#xA;Ov1CIv338GX5CI2JNg0e76TI17vtbs/y68qtbpqd9qtxaaQ9vaOC6p6wmuVd2qBy+FUj5KoBLVA9&#xA;8Z9oZb4YxBnZ91BY6HHXEZERoe+yoW35daSzwq1xeXEv+gQ3EEMaBjdanEJYolY8wixoGMjsPBQO&#xA;pyUu0J77RH1c+6Jon49B8WMdDHbcn6fnIX9nUofQfIum3ur3KSPdXFgmrJpNnHbqBLIXZz6srEcY&#xA;0SNOTbb+3XJ59bKMBVCXBxG/uHfuxw6SMpHmY8fCK/T8FTzr5b8s22mzayl6ItS1GUXllpkEarbr&#xA;bXMjGONQo+HjEOXLp+yN8jo9RllIQr0xFEnnY5/b+tOqwYxEzv1S3A6Uf2I+/wDIej6i6Q2kslrc&#xA;6YLS11ArCpR+GnyXV08aKfUklUwN16llHvlUNdOG53EuIjf+kIx9w3bZ6OEthsY0Dt/RJPx2QOo+&#xA;RdDsNOXWJ/0j+j/Qtme0VYzcrLdmVlLtxCJGIo1bddywX3y3HrZzlwDh4rO/ShXzNn7Lap6SEY8Z&#xA;4uGht13v9H3onU/y48r6eHt5tYma+0+3muNWSONXCmKNSBHuB/eyJGOTfFWuwyGPtDLPcRHDIgR/&#xA;Hu3Z5NDjjsZG4gk/j37JdpUOk2flB7ylut9qN9PFpy3lqt07w28SUQMRxj5STgFvEe2XZTOWat+G&#xA;MRdGtyft5NWMRjiva5SNWL5fdzREn5cWFvPqBu7yeGzsrnUIVm9MFpItOhq8iKSoblO6IN6b9cgO&#xA;0JERoAkiPzkeXysszoYgmyaBl/sR+ugi4Pyx0eeVbVbm8huI3sJLiaWNPQNvf/GViYbtJFFuT0bi&#xA;1Btlcu0pgXUSPV77j3+RP6GY0ECas36fdUu73BQh/LvSJrKz1SCW+ls7iKEfU/TRbqSe5uJILfj9&#xA;pY4pPRZ+TcvDeuTOvmJGJEbF79KABPvItiNFEgSHFRrbrZJA9wNMM1+xttP13UbC1kaW3tLmWCKV&#xA;6BmWJygY08aZscEzPHGR5kAuBmgIzMRyBKAy1qdirsVdirsVdirsVdirsVdirsVdirsVdirsVRun&#xA;61rGmrMunX9xZrcDjOtvK8QkUV2fgRyG565XkwwnXEAa7w2Qyzh9JIvuUxqepBAgu5ggi+rhfUan&#xA;o8/V9Klfsep8XHpXfrh8OPcOd/HlfyR4ku893wV7vzDr97LFLeand3MsD+rBJNPJIySUUc0LMSrf&#xA;Au48BkYafHEECIF+QZSzzkbMia81EapqYXiLubjxkTj6j04zbyr16P8AtDv3yXhR7h/ZyY+JLvP9&#xA;qvceZPMVygS41S8mRUMarJPKwCMpQqAWPwlGK08NshHT4xyjEfAMpZ8h5yPzah8wa9AJBBqV1EJY&#xA;kglCTyKHijXgkbUbdFXZVOwGE4MZ5xHfy6qM0xykfm628xeYLaWaW21O7gluAguJI55EaQR7JzKs&#xA;C3HtXpglp8cgAYg15BY55iyJHfzWWWua1YCQWOoXNqJmWSUQTSR83Q1Vm4kVKncE4Z4YS+qIPvCI&#xA;ZZx5Ej4rZtX1aaxi0+a9nlsIDWC0eV2hQ+KRk8V69hhGKAkZADiPWt1OWRjwknhHRUTX9dS5+tJq&#xA;V0tz6rXHrrNIH9Zl4tLyDV5lTQt1pgODGRXCKquXTuSM07viN8+fVefM3mQtOx1W8LXSCK5b6xLW&#xA;WMVAST4viX4jscH5bHt6Y7ctgnx8m/qO/msufMGvXUQhudSup4li9BY5J5HUQ8lb0wGYjhyjU8el&#xA;QPDDHBjibEQOvLqiWaZFGRPTm6DzBr1vp76dBqV1Fp8ledmk8iwty61jDcTXvtjLBjMuIxHF31uo&#xA;zTEeESPD3Xs3d+YdfvOX1vU7u45KyN6s8j1V+PMHkx2b01r40HhjHT448ogfALLPOXORPxRenecv&#xA;MdjJbul9NMtnFLDYxTSyvHb+tC0HOFeQCOiv8BHQ0yvJpMcgdgLIvYb0b3Zw1WSNbna68rFbIdfM&#xA;/mVbme6XVr1bq6AW5nFxKJJVX7IkblVgO1cn+WxUBwxoctgx/MZLJ4pWfMpdJJJJI0kjF5HJZ3Y1&#xA;JJ3JJPfLQKaibW4UOxV2KuxV2KuxV2KuxV2KuxV2KuxV2KuxV2KuxV2KuxV2KuxV2KuxV2KuxV2K&#xA;uxV2KuxV2KuxV2KuxV2Kv//Z</xmpGImg:image>
               </rdf:li>
            </rdf:Alt>
         </xmp:Thumbnails>
         <xmpMM:RenditionClass>proof:pdf</xmpMM:RenditionClass>
         <xmpMM:OriginalDocumentID>uuid:65E6390686CF11DBA6E2D887CEACB407</xmpMM:OriginalDocumentID>
         <xmpMM:DocumentID>xmp.did:a26e17d3-1cf6-2041-861e-4e3be65c1b36</xmpMM:DocumentID>
         <xmpMM:InstanceID>xmp.iid:a26e17d3-1cf6-2041-861e-4e3be65c1b36</xmpMM:InstanceID>
         <xmpMM:DerivedFrom rdf:parseType="Resource">
            <stRef:instanceID>xmp.iid:a148a92b-db8a-ec47-8c73-010b1c64c524</stRef:instanceID>
            <stRef:documentID>xmp.did:a148a92b-db8a-ec47-8c73-010b1c64c524</stRef:documentID>
            <stRef:originalDocumentID>uuid:65E6390686CF11DBA6E2D887CEACB407</stRef:originalDocumentID>
            <stRef:renditionClass>proof:pdf</stRef:renditionClass>
         </xmpMM:DerivedFrom>
         <xmpMM:History>
            <rdf:Seq>
               <rdf:li rdf:parseType="Resource">
                  <stEvt:action>saved</stEvt:action>
                  <stEvt:instanceID>xmp.iid:a148a92b-db8a-ec47-8c73-010b1c64c524</stEvt:instanceID>
                  <stEvt:when>2015-05-23T17:37:33+02:00</stEvt:when>
                  <stEvt:softwareAgent>Adobe Illustrator CC (Windows)</stEvt:softwareAgent>
                  <stEvt:changed>/</stEvt:changed>
               </rdf:li>
               <rdf:li rdf:parseType="Resource">
                  <stEvt:action>saved</stEvt:action>
                  <stEvt:instanceID>xmp.iid:a26e17d3-1cf6-2041-861e-4e3be65c1b36</stEvt:instanceID>
                  <stEvt:when>2015-05-23T17:44:26+02:00</stEvt:when>
                  <stEvt:softwareAgent>Adobe Illustrator CC (Windows)</stEvt:softwareAgent>
                  <stEvt:changed>/</stEvt:changed>
               </rdf:li>
            </rdf:Seq>
         </xmpMM:History>
         <illustrator:StartupProfile>Web</illustrator:StartupProfile>
         <xmpTPg:NPages>1</xmpTPg:NPages>
         <xmpTPg:HasVisibleTransparency>False</xmpTPg:HasVisibleTransparency>
         <xmpTPg:HasVisibleOverprint>False</xmpTPg:HasVisibleOverprint>
         <xmpTPg:MaxPageSize rdf:parseType="Resource">
            <stDim:w>400.000000</stDim:w>
            <stDim:h>200.000000</stDim:h>
            <stDim:unit>Pixels</stDim:unit>
         </xmpTPg:MaxPageSize>
         <xmpTPg:PlateNames>
            <rdf:Seq>
               <rdf:li>Cyan</rdf:li>
               <rdf:li>Magenta</rdf:li>
               <rdf:li>Yellow</rdf:li>
            </rdf:Seq>
         </xmpTPg:PlateNames>
         <xmpTPg:SwatchGroups>
            <rdf:Seq>
               <rdf:li rdf:parseType="Resource">
                  <xmpG:groupName>Default Swatch Group</xmpG:groupName>
                  <xmpG:groupType>0</xmpG:groupType>
               </rdf:li>
            </rdf:Seq>
         </xmpTPg:SwatchGroups>
         <pdf:Producer>Adobe PDF library 10.01</pdf:Producer>
      </rdf:Description>
   </rdf:RDF>
</x:xmpmeta>
                                                                                                    
                                                                                                    
                                                                                                    
                                                                                                    
                                                                                                    
                                                                                                    
                                                                                                    
                                                                                                    
                                                                                                    
                                                                                                    
                                                                                                    
                                                                                                    
                                                                                                    
                                                                                                    
                                                                                                    
                                                                                                    
                                                                                                    
                                                                                                    
                                                                                                    
                                                                                                    
                           
<?xpacket end="w"?>
	</metadata>
<rect fill="#0066CC" width="400" height="200"/>
<g>
	<path fill="#FFFFFF" d="M184.366,14.337v7.915c0,2.996,1.329,4.265,3.114,4.265c1.983,0,3.253-1.31,3.253-4.265v-7.915h1.745v7.795
		c0,4.106-2.162,5.792-5.058,5.792c-2.737,0-4.801-1.567-4.801-5.713v-7.875L184.366,14.337L184.366,14.337z"/>
	<path fill="#FFFFFF" d="M195.478,27.707v-13.37h1.885l4.285,6.764c0.991,1.567,1.765,2.976,2.399,4.344l0.04-0.02
		c-0.158-1.785-0.198-3.412-0.198-5.495v-5.594h1.627v13.37h-1.746l-4.245-6.784c-0.932-1.488-1.825-3.015-2.499-4.463l-0.06,0.02
		c0.099,1.686,0.139,3.293,0.139,5.515v5.713H195.478z"/>
	<path fill="#FFFFFF" d="M210.26,14.337v13.37h-1.726v-13.37C208.534,14.337,210.26,14.337,210.26,14.337z"/>
	<path fill="#FFFFFF" d="M224.702,20.883c0,4.602-2.797,7.042-6.209,7.042c-3.53,0-6.011-2.737-6.011-6.784
		c0-4.245,2.639-7.022,6.209-7.022C222.342,14.119,224.702,16.916,224.702,20.883z M214.328,21.102c0,2.856,1.547,5.416,4.265,5.416
		c2.737,0,4.284-2.52,4.284-5.555c0-2.658-1.389-5.435-4.265-5.435C215.756,15.527,214.328,18.166,214.328,21.102z M221.488,11.263
		l-2.519,2.301h-1.429l1.845-2.301C219.385,11.263,221.488,11.263,221.488,11.263z"/>
	<path fill="#FFFFFF" d="M226.947,27.707v-13.37h1.885l4.285,6.764c0.991,1.567,1.765,2.976,2.399,4.344l0.04-0.02
		c-0.158-1.785-0.198-3.412-0.198-5.495v-5.594h1.627v13.37h-1.746l-4.245-6.784c-0.932-1.488-1.825-3.015-2.499-4.463l-0.06,0.02
		c0.099,1.686,0.139,3.293,0.139,5.515v5.713H226.947z"/>
	<path fill="#FFFFFF" d="M251.134,21.439h-5.197v4.82h5.792v1.448h-7.519v-13.37h7.221v1.448h-5.494v4.225h5.197V21.439z"/>
	<path fill="#FFFFFF" d="M255.698,14.337v7.915c0,2.996,1.329,4.265,3.114,4.265c1.983,0,3.253-1.31,3.253-4.265v-7.915h1.746v7.795
		c0,4.106-2.162,5.792-5.059,5.792c-2.737,0-4.8-1.567-4.8-5.713v-7.875L255.698,14.337L255.698,14.337z"/>
	<path fill="#FFFFFF" d="M266.811,14.516c0.873-0.178,2.122-0.277,3.313-0.277c1.845,0,3.035,0.337,3.868,1.091
		c0.675,0.595,1.052,1.507,1.052,2.539c0,1.766-1.111,2.936-2.52,3.412v0.06c1.031,0.357,1.646,1.31,1.964,2.698
		c0.437,1.865,0.754,3.154,1.031,3.67h-1.785c-0.218-0.377-0.516-1.527-0.893-3.194c-0.396-1.845-1.111-2.539-2.678-2.599h-1.627
		v5.792h-1.726V14.516H266.811z M268.536,20.605h1.766c1.845,0,3.015-1.012,3.015-2.539c0-1.726-1.249-2.479-3.074-2.5
		c-0.833,0-1.428,0.08-1.706,0.159v4.88H268.536z"/>
	<path fill="#FFFFFF" d="M288.971,20.883c0,4.602-2.797,7.042-6.209,7.042c-3.53,0-6.011-2.737-6.011-6.784
		c0-4.245,2.639-7.022,6.209-7.022C286.61,14.119,288.971,16.916,288.971,20.883z M278.597,21.102c0,2.856,1.547,5.416,4.265,5.416
		c2.737,0,4.284-2.52,4.284-5.555c0-2.658-1.389-5.435-4.265-5.435C280.024,15.527,278.597,18.166,278.597,21.102z"/>
	<path fill="#FFFFFF" d="M291.216,14.496c0.834-0.139,1.925-0.258,3.313-0.258c1.706,0,2.955,0.396,3.749,1.111
		c0.733,0.635,1.17,1.606,1.17,2.797c0,1.21-0.356,2.162-1.031,2.856c-0.912,0.972-2.4,1.468-4.086,1.468
		c-0.517,0-0.992-0.02-1.389-0.119v5.356h-1.727V14.496H291.216z M292.942,20.943c0.377,0.099,0.853,0.139,1.428,0.139
		c2.083,0,3.353-1.012,3.353-2.856c0-1.765-1.25-2.618-3.154-2.618c-0.754,0-1.329,0.06-1.626,0.139v5.196H292.942z"/>
	<path fill="#FFFFFF" d="M308.695,21.439h-5.197v4.82h5.792v1.448h-7.518v-13.37h7.221v1.448h-5.495v4.225h5.197V21.439z"/>
	<path fill="#FFFFFF" d="M313.697,23.501l-1.389,4.206h-1.785l4.543-13.37h2.082l4.563,13.37h-1.845l-1.428-4.206H313.697z
		 M318.081,22.153l-1.31-3.848c-0.297-0.873-0.495-1.667-0.693-2.44h-0.04c-0.198,0.793-0.417,1.606-0.675,2.42l-1.309,3.868
		H318.081z"/>
</g>
<g>
	<path fill="#FFFFFF" d="M180.615,61.451c0.715-0.119,1.65-0.221,2.842-0.221c1.463,0,2.535,0.34,3.216,0.953
		c0.629,0.544,1.003,1.378,1.003,2.399c0,1.038-0.306,1.854-0.885,2.45c-0.782,0.833-2.059,1.259-3.504,1.259
		c-0.442,0-0.852-0.017-1.191-0.102v4.594h-1.48V61.451H180.615z M182.096,66.98c0.323,0.085,0.731,0.119,1.225,0.119
		c1.787,0,2.876-0.868,2.876-2.45c0-1.514-1.072-2.246-2.705-2.246c-0.646,0-1.141,0.051-1.396,0.119L182.096,66.98L182.096,66.98z"
		/>
	<path fill="#FFFFFF" d="M189.664,61.468c0.748-0.153,1.82-0.238,2.841-0.238c1.583,0,2.604,0.289,3.318,0.936
		c0.578,0.511,0.901,1.293,0.901,2.178c0,1.515-0.953,2.518-2.161,2.927v0.051c0.885,0.306,1.412,1.123,1.685,2.314
		c0.374,1.599,0.646,2.705,0.885,3.147h-1.531c-0.188-0.323-0.442-1.31-0.766-2.739c-0.34-1.582-0.953-2.178-2.297-2.229h-1.395
		v4.968h-1.48L189.664,61.468L189.664,61.468z M191.145,66.691h1.514c1.582,0,2.586-0.868,2.586-2.178
		c0-1.48-1.071-2.127-2.637-2.144c-0.715,0-1.226,0.068-1.463,0.136L191.145,66.691L191.145,66.691z"/>
	<path fill="#FFFFFF" d="M208.664,66.929c0,3.947-2.398,6.04-5.325,6.04c-3.028,0-5.155-2.348-5.155-5.818
		c0-3.641,2.264-6.023,5.325-6.023C206.64,61.127,208.664,63.526,208.664,66.929z M199.767,67.116c0,2.45,1.327,4.645,3.657,4.645
		c2.349,0,3.676-2.161,3.676-4.764c0-2.28-1.191-4.662-3.658-4.662C200.991,62.335,199.767,64.598,199.767,67.116z"/>
	<path fill="#FFFFFF" d="M212.659,72.782v-4.866l-3.624-6.602h1.685l1.616,3.165c0.442,0.868,0.782,1.565,1.14,2.365h0.034
		c0.323-0.749,0.714-1.498,1.156-2.365l1.65-3.165h1.685l-3.845,6.584v4.883L212.659,72.782L212.659,72.782z"/>
	<path fill="#FFFFFF" d="M225.127,67.405h-4.458v4.134h4.968v1.242h-6.448V61.314h6.193v1.242h-4.713v3.624h4.458L225.127,67.405
		L225.127,67.405z"/>
	<path fill="#FFFFFF" d="M235.57,72.407c-0.545,0.272-1.634,0.544-3.029,0.544c-3.232,0-5.665-2.042-5.665-5.801
		c0-3.59,2.433-6.023,5.988-6.023c1.43,0,2.331,0.306,2.723,0.51l-0.357,1.208c-0.562-0.272-1.361-0.476-2.313-0.476
		c-2.688,0-4.475,1.718-4.475,4.729c0,2.807,1.616,4.611,4.406,4.611c0.901,0,1.82-0.187,2.416-0.477L235.57,72.407z"/>
	<path fill="#FFFFFF" d="M240.075,62.574h-3.488v-1.259h8.49v1.259h-3.505v10.208h-1.497V62.574z"/>
	<path fill="#FFFFFF" d="M255.69,66.929c0,3.947-2.398,6.04-5.325,6.04c-3.028,0-5.155-2.348-5.155-5.818
		c0-3.641,2.264-6.023,5.325-6.023C253.666,61.127,255.69,63.526,255.69,66.929z M246.793,67.116c0,2.45,1.327,4.645,3.657,4.645
		c2.349,0,3.676-2.161,3.676-4.764c0-2.28-1.191-4.662-3.658-4.662C248.018,62.335,246.793,64.598,246.793,67.116z"/>
	<path fill="#FFFFFF" d="M269.229,72.407c-0.545,0.272-1.634,0.544-3.029,0.544c-3.232,0-5.665-2.042-5.665-5.801
		c0-3.59,2.433-6.023,5.988-6.023c1.43,0,2.331,0.306,2.723,0.51l-0.357,1.208c-0.562-0.272-1.361-0.476-2.313-0.476
		c-2.688,0-4.475,1.718-4.475,4.729c0,2.807,1.616,4.611,4.406,4.611c0.901,0,1.82-0.187,2.416-0.477L269.229,72.407z"/>
	<path fill="#FFFFFF" d="M280.521,66.929c0,3.947-2.398,6.04-5.325,6.04c-3.028,0-5.155-2.348-5.155-5.818
		c0-3.641,2.264-6.023,5.325-6.023C278.497,61.127,280.521,63.526,280.521,66.929z M271.624,67.116c0,2.45,1.327,4.645,3.657,4.645
		c2.349,0,3.676-2.161,3.676-4.764c0-2.28-1.191-4.662-3.658-4.662C272.849,62.335,271.624,64.598,271.624,67.116z"/>
	<path fill="#FFFFFF" d="M282.44,61.314h6.176v1.242h-4.695v3.811h4.338v1.225h-4.338v5.189h-1.48L282.44,61.314L282.44,61.314z"/>
	<path fill="#FFFFFF" d="M292.203,61.314v11.467h-1.48V61.314H292.203z"/>
	<path fill="#FFFFFF" d="M294.788,72.782V61.314h1.616l3.675,5.802c0.851,1.344,1.515,2.552,2.059,3.726l0.034-0.017
		c-0.136-1.531-0.17-2.926-0.17-4.713v-4.798h1.395v11.467H301.9l-3.641-5.819c-0.8-1.276-1.565-2.586-2.144-3.828l-0.052,0.017
		c0.086,1.446,0.119,2.825,0.119,4.73v4.9L294.788,72.782L294.788,72.782z"/>
	<path fill="#FFFFFF" d="M307.833,69.175l-1.19,3.607h-1.531l3.896-11.467h1.787l3.913,11.467h-1.582l-1.226-3.607H307.833z
		 M311.594,68.018l-1.123-3.301c-0.256-0.749-0.426-1.429-0.596-2.093h-0.034c-0.17,0.681-0.357,1.378-0.578,2.076l-1.123,3.318
		H311.594z"/>
	<path fill="#FFFFFF" d="M316.388,72.782V61.314h1.616l3.675,5.802c0.851,1.344,1.515,2.552,2.059,3.726l0.034-0.017
		c-0.136-1.531-0.17-2.926-0.17-4.713v-4.798h1.395v11.467H323.5l-3.641-5.819c-0.8-1.276-1.565-2.586-2.144-3.828l-0.052,0.017
		c0.086,1.446,0.119,2.825,0.119,4.73v4.9L316.388,72.782L316.388,72.782z"/>
	<path fill="#FFFFFF" d="M335.593,72.407c-0.545,0.272-1.634,0.544-3.029,0.544c-3.232,0-5.665-2.042-5.665-5.801
		c0-3.59,2.433-6.023,5.988-6.023c1.43,0,2.331,0.306,2.723,0.51l-0.357,1.208c-0.562-0.272-1.361-0.476-2.313-0.476
		c-2.688,0-4.475,1.718-4.475,4.729c0,2.807,1.616,4.611,4.406,4.611c0.901,0,1.82-0.187,2.416-0.477L335.593,72.407z"/>
	<path fill="#FFFFFF" d="M338.924,61.314v11.467h-1.48V61.314H338.924z"/>
	<path fill="#FFFFFF" d="M343.362,69.175l-1.19,3.607h-1.531l3.896-11.467h1.787l3.913,11.467h-1.582l-1.226-3.607H343.362z
		 M347.123,68.018L346,64.717c-0.256-0.749-0.426-1.429-0.596-2.093h-0.034c-0.17,0.681-0.357,1.378-0.578,2.076l-1.123,3.318
		C343.669,68.018,347.123,68.018,347.123,68.018z"/>
	<path fill="#FFFFFF" d="M351.917,61.468c0.901-0.136,1.974-0.238,3.147-0.238c2.127,0,3.641,0.494,4.645,1.429
		c1.021,0.936,1.616,2.263,1.616,4.117c0,1.872-0.578,3.403-1.65,4.458c-1.071,1.072-2.841,1.65-5.069,1.65
		c-1.055,0-1.939-0.051-2.688-0.136v-11.28C351.918,61.468,351.917,61.468,351.917,61.468z M353.397,71.608
		c0.374,0.068,0.919,0.085,1.497,0.085c3.164,0,4.883-1.77,4.883-4.866c0.017-2.705-1.515-4.424-4.645-4.424
		c-0.766,0-1.345,0.068-1.735,0.153L353.397,71.608L353.397,71.608z"/>
	<path fill="#FFFFFF" d="M373.044,66.929c0,3.947-2.398,6.04-5.325,6.04c-3.028,0-5.155-2.348-5.155-5.818
		c0-3.641,2.263-6.023,5.325-6.023C371.02,61.127,373.044,63.526,373.044,66.929z M364.146,67.116c0,2.45,1.327,4.645,3.658,4.645
		c2.348,0,3.675-2.161,3.675-4.764c0-2.28-1.19-4.662-3.657-4.662C365.371,62.335,364.146,64.598,364.146,67.116z"/>
	<path fill="#FFFFFF" d="M180.615,81.86c0.715-0.119,1.65-0.221,2.842-0.221c1.463,0,2.535,0.34,3.216,0.953
		c0.629,0.544,1.003,1.378,1.003,2.399c0,1.038-0.306,1.854-0.885,2.45c-0.782,0.833-2.059,1.259-3.504,1.259
		c-0.442,0-0.852-0.017-1.191-0.102v4.594h-1.48V81.86H180.615z M182.096,87.39c0.323,0.085,0.731,0.119,1.225,0.119
		c1.787,0,2.876-0.868,2.876-2.45c0-1.514-1.072-2.246-2.705-2.246c-0.646,0-1.141,0.051-1.396,0.119L182.096,87.39L182.096,87.39z"
		/>
	<path fill="#FFFFFF" d="M199.464,87.339c0,3.947-2.399,6.04-5.325,6.04c-3.028,0-5.155-2.348-5.155-5.818
		c0-3.641,2.263-6.023,5.325-6.023C197.439,81.537,199.464,83.936,199.464,87.339z M190.565,87.526c0,2.45,1.327,4.645,3.658,4.645
		c2.348,0,3.675-2.161,3.675-4.764c0-2.28-1.191-4.662-3.658-4.662C191.791,82.745,190.565,85.008,190.565,87.526z"/>
	<path fill="#FFFFFF" d="M201.382,81.877c0.749-0.153,1.82-0.238,2.842-0.238c1.582,0,2.603,0.289,3.317,0.936
		c0.578,0.51,0.901,1.293,0.901,2.178c0,1.514-0.952,2.518-2.16,2.926v0.051c0.885,0.306,1.412,1.123,1.685,2.314
		c0.374,1.599,0.646,2.705,0.885,3.147h-1.531c-0.188-0.323-0.442-1.31-0.766-2.739c-0.341-1.582-0.953-2.178-2.297-2.229h-1.396
		v4.968h-1.48L201.382,81.877L201.382,81.877z M202.862,87.101h1.515c1.582,0,2.586-0.868,2.586-2.178
		c0-1.48-1.072-2.127-2.638-2.144c-0.714,0-1.225,0.068-1.463,0.136V87.101z"/>
	<path fill="#FFFFFF" d="M220.075,87.815h-4.457v4.134h4.968v1.242h-6.448V81.724h6.192v1.242h-4.712v3.624h4.457V87.815z"/>
	<path fill="#FFFFFF" d="M222.505,81.724h1.48v10.225h4.9v1.242h-6.381V81.724H222.505z"/>
	<path fill="#FFFFFF" d="M234.139,81.724h6.176v1.242h-4.695v3.811h4.338v1.225h-4.338v5.189h-1.48L234.139,81.724L234.139,81.724z"
		/>
	<path fill="#FFFFFF" d="M252.221,87.339c0,3.947-2.398,6.04-5.325,6.04c-3.028,0-5.155-2.348-5.155-5.818
		c0-3.641,2.264-6.023,5.325-6.023C250.196,81.537,252.221,83.936,252.221,87.339z M243.323,87.526c0,2.45,1.327,4.645,3.657,4.645
		c2.349,0,3.676-2.161,3.676-4.764c0-2.28-1.191-4.662-3.658-4.662C244.548,82.745,243.323,85.008,243.323,87.526z"/>
	<path fill="#FFFFFF" d="M254.14,93.191V81.724h1.616l3.675,5.802c0.851,1.344,1.515,2.552,2.059,3.726l0.034-0.017
		c-0.136-1.531-0.17-2.926-0.17-4.713v-4.798h1.395v11.467h-1.497l-3.641-5.819c-0.8-1.276-1.565-2.586-2.144-3.828l-0.052,0.017
		c0.086,1.446,0.119,2.824,0.119,4.73v4.9C255.534,93.191,254.14,93.191,254.14,93.191z"/>
	<path fill="#FFFFFF" d="M265.33,81.877c0.902-0.136,1.974-0.238,3.147-0.238c2.127,0,3.642,0.494,4.646,1.429
		c1.021,0.936,1.616,2.263,1.616,4.117c0,1.872-0.579,3.403-1.65,4.458c-1.072,1.072-2.842,1.65-5.07,1.65
		c-1.055,0-1.939-0.051-2.688-0.136v-11.28H265.33z M266.811,92.018c0.374,0.068,0.919,0.085,1.497,0.085
		c3.165,0,4.883-1.77,4.883-4.866c0.018-2.705-1.514-4.424-4.645-4.424c-0.766,0-1.344,0.068-1.735,0.153L266.811,92.018
		L266.811,92.018z"/>
	<path fill="#FFFFFF" d="M286.457,87.339c0,3.947-2.398,6.04-5.325,6.04c-3.028,0-5.155-2.348-5.155-5.818
		c0-3.641,2.264-6.023,5.325-6.023C284.433,81.537,286.457,83.936,286.457,87.339z M277.56,87.526c0,2.45,1.327,4.645,3.657,4.645
		c2.349,0,3.676-2.161,3.676-4.764c0-2.28-1.191-4.662-3.658-4.662C278.784,82.745,277.56,85.008,277.56,87.526z"/>
	<path fill="#FFFFFF" d="M297.919,87.815h-4.457v4.134h4.968v1.242h-6.448V81.724h6.192v1.242h-4.712v3.624h4.457L297.919,87.815
		L297.919,87.815z"/>
	<path fill="#FFFFFF" d="M301.829,81.724v6.789c0,2.569,1.14,3.658,2.671,3.658c1.701,0,2.79-1.123,2.79-3.658v-6.789h1.498v6.687
		c0,3.522-1.854,4.968-4.339,4.968c-2.348,0-4.117-1.344-4.117-4.9v-6.754L301.829,81.724L301.829,81.724z"/>
	<path fill="#FFFFFF" d="M311.353,81.877c0.749-0.153,1.82-0.238,2.842-0.238c1.582,0,2.603,0.289,3.317,0.936
		c0.578,0.51,0.901,1.293,0.901,2.178c0,1.514-0.952,2.518-2.16,2.926v0.051c0.885,0.306,1.412,1.123,1.685,2.314
		c0.374,1.599,0.646,2.705,0.885,3.147h-1.531c-0.188-0.323-0.442-1.31-0.766-2.739c-0.341-1.582-0.953-2.178-2.297-2.229h-1.396
		v4.968h-1.48V81.877z M312.833,87.101h1.515c1.582,0,2.586-0.868,2.586-2.178c0-1.48-1.072-2.127-2.638-2.144
		c-0.714,0-1.225,0.068-1.463,0.136V87.101z"/>
	<path fill="#FFFFFF" d="M330.354,87.339c0,3.947-2.398,6.04-5.325,6.04c-3.028,0-5.155-2.348-5.155-5.818
		c0-3.641,2.264-6.023,5.325-6.023C328.329,81.537,330.354,83.936,330.354,87.339z M321.456,87.526c0,2.45,1.327,4.645,3.657,4.645
		c2.349,0,3.676-2.161,3.676-4.764c0-2.28-1.191-4.662-3.658-4.662C322.681,82.745,321.456,85.008,321.456,87.526z"/>
	<path fill="#FFFFFF" d="M332.272,81.86c0.715-0.119,1.65-0.221,2.841-0.221c1.464,0,2.535,0.34,3.216,0.953
		c0.63,0.544,1.004,1.378,1.004,2.399c0,1.038-0.307,1.854-0.885,2.45c-0.782,0.833-2.059,1.259-3.505,1.259
		c-0.442,0-0.851-0.017-1.19-0.102v4.594h-1.48L332.272,81.86L332.272,81.86z M333.753,87.39c0.323,0.085,0.731,0.119,1.225,0.119
		c1.786,0,2.875-0.868,2.875-2.45c0-1.514-1.071-2.246-2.705-2.246c-0.646,0-1.14,0.051-1.395,0.119L333.753,87.39L333.753,87.39z"
		/>
	<path fill="#FFFFFF" d="M347.258,87.815h-4.457v4.134h4.968v1.242h-6.448V81.724h6.192v1.242h-4.712v3.624h4.457L347.258,87.815
		L347.258,87.815z"/>
	<path fill="#FFFFFF" d="M359.488,87.339c0,3.947-2.399,6.04-5.325,6.04c-3.029,0-5.156-2.348-5.156-5.818
		c0-3.641,2.264-6.023,5.326-6.023C357.463,81.537,359.488,83.936,359.488,87.339z M350.59,87.526c0,2.45,1.327,4.645,3.658,4.645
		c2.348,0,3.675-2.161,3.675-4.764c0-2.28-1.191-4.662-3.658-4.662C351.814,82.745,350.59,85.008,350.59,87.526z"/>
	<path fill="#FFFFFF" d="M365.012,81.877c0.901-0.136,1.974-0.238,3.147-0.238c2.127,0,3.641,0.494,4.645,1.429
		c1.021,0.936,1.616,2.263,1.616,4.117c0,1.872-0.578,3.403-1.65,4.458c-1.071,1.072-2.841,1.65-5.069,1.65
		c-1.055,0-1.939-0.051-2.688-0.136v-11.28H365.012z M366.492,92.018c0.374,0.068,0.919,0.085,1.497,0.085
		c3.164,0,4.883-1.77,4.883-4.866c0.017-2.705-1.515-4.424-4.645-4.424c-0.766,0-1.345,0.068-1.735,0.153L366.492,92.018
		L366.492,92.018z"/>
	<path fill="#FFFFFF" d="M382.276,87.815h-4.457v4.134h4.968v1.242h-6.448V81.724h6.193v1.242h-4.713v3.624h4.457L382.276,87.815
		L382.276,87.815z"/>
	<path fill="#FFFFFF" d="M180.615,102.286c0.902-0.136,1.974-0.238,3.147-0.238c2.127,0,3.642,0.494,4.646,1.43
		c1.021,0.936,1.616,2.263,1.616,4.117c0,1.871-0.579,3.402-1.65,4.457c-1.072,1.072-2.842,1.65-5.07,1.65
		c-1.055,0-1.939-0.051-2.688-0.136L180.615,102.286L180.615,102.286z M182.096,112.427c0.374,0.067,0.919,0.085,1.497,0.085
		c3.165,0,4.883-1.77,4.883-4.866c0.018-2.705-1.514-4.424-4.645-4.424c-0.766,0-1.344,0.068-1.735,0.153L182.096,112.427
		L182.096,112.427z"/>
	<path fill="#FFFFFF" d="M197.881,108.224h-4.458v4.135h4.968v1.242h-6.448v-11.468h6.193v1.242h-4.713v3.624h4.458L197.881,108.224
		L197.881,108.224z"/>
	<path fill="#FFFFFF" d="M200.106,111.797c0.663,0.408,1.633,0.749,2.654,0.749c1.514,0,2.398-0.8,2.398-1.957
		c0-1.071-0.612-1.685-2.161-2.279c-1.871-0.664-3.028-1.634-3.028-3.25c0-1.786,1.48-3.113,3.709-3.113
		c1.174,0,2.025,0.272,2.535,0.562l-0.408,1.208c-0.374-0.204-1.14-0.545-2.178-0.545c-1.565,0-2.16,0.936-2.16,1.719
		c0,1.071,0.697,1.599,2.279,2.212c1.939,0.748,2.927,1.684,2.927,3.368c0,1.77-1.311,3.301-4.016,3.301
		c-1.105,0-2.313-0.323-2.927-0.731L200.106,111.797z"/>
	<path fill="#FFFFFF" d="M210.55,109.993l-1.191,3.607h-1.531l3.896-11.468h1.786l3.913,11.468h-1.582l-1.225-3.607H210.55z
		 M214.31,108.837l-1.123-3.301c-0.255-0.749-0.425-1.43-0.596-2.093h-0.033c-0.171,0.681-0.357,1.378-0.579,2.075l-1.123,3.318
		h3.454V108.837z"/>
	<path fill="#FFFFFF" d="M219.104,102.286c0.749-0.153,1.82-0.238,2.842-0.238c1.582,0,2.603,0.289,3.317,0.937
		c0.578,0.51,0.901,1.293,0.901,2.178c0,1.514-0.952,2.518-2.16,2.926v0.051c0.885,0.307,1.412,1.123,1.685,2.314
		c0.374,1.599,0.646,2.705,0.885,3.147h-1.531c-0.188-0.323-0.442-1.311-0.766-2.739c-0.341-1.582-0.953-2.178-2.297-2.229h-1.396
		v4.968h-1.48L219.104,102.286L219.104,102.286z M220.584,107.51h1.515c1.582,0,2.586-0.868,2.586-2.178
		c0-1.48-1.072-2.127-2.638-2.144c-0.714,0-1.225,0.067-1.463,0.136V107.51z"/>
	<path fill="#FFFFFF" d="M228.254,102.286c0.748-0.153,1.82-0.238,2.841-0.238c1.583,0,2.604,0.289,3.318,0.937
		c0.578,0.51,0.901,1.293,0.901,2.178c0,1.514-0.953,2.518-2.161,2.926v0.051c0.885,0.307,1.412,1.123,1.685,2.314
		c0.374,1.599,0.646,2.705,0.885,3.147h-1.531c-0.188-0.323-0.442-1.311-0.766-2.739c-0.34-1.582-0.953-2.178-2.297-2.229h-1.395
		v4.968h-1.48L228.254,102.286L228.254,102.286z M229.734,107.51h1.514c1.582,0,2.586-0.868,2.586-2.178
		c0-1.48-1.071-2.127-2.637-2.144c-0.715,0-1.226,0.067-1.463,0.136L229.734,107.51L229.734,107.51z"/>
	<path fill="#FFFFFF" d="M247.255,107.748c0,3.947-2.399,6.039-5.325,6.039c-3.028,0-5.155-2.348-5.155-5.818
		c0-3.641,2.263-6.022,5.325-6.022C245.23,101.946,247.255,104.345,247.255,107.748z M238.356,107.935
		c0,2.45,1.327,4.645,3.658,4.645c2.348,0,3.675-2.16,3.675-4.764c0-2.279-1.191-4.661-3.658-4.661
		C239.582,103.154,238.356,105.417,238.356,107.935z"/>
	<path fill="#FFFFFF" d="M249.173,102.133h1.48v10.226h4.9v1.242h-6.381v-11.468C249.172,102.133,249.173,102.133,249.173,102.133z"
		/>
	<path fill="#FFFFFF" d="M257.2,102.133h1.48v10.226h4.9v1.242h-6.38V102.133z"/>
	<path fill="#FFFFFF" d="M274.365,107.748c0,3.947-2.399,6.039-5.325,6.039c-3.028,0-5.155-2.348-5.155-5.818
		c0-3.641,2.263-6.022,5.325-6.022C272.341,101.946,274.365,104.345,274.365,107.748z M265.467,107.935
		c0,2.45,1.327,4.645,3.658,4.645c2.348,0,3.675-2.16,3.675-4.764c0-2.279-1.191-4.661-3.658-4.661
		C266.692,103.154,265.467,105.417,265.467,107.935z"/>
	<path fill="#FFFFFF" d="M279.889,102.286c0.749-0.153,1.82-0.238,2.842-0.238c1.582,0,2.603,0.289,3.317,0.937
		c0.578,0.51,0.901,1.293,0.901,2.178c0,1.514-0.952,2.518-2.16,2.926v0.051c0.885,0.307,1.412,1.123,1.685,2.314
		c0.374,1.599,0.646,2.705,0.885,3.147h-1.531c-0.188-0.323-0.442-1.311-0.766-2.739c-0.341-1.582-0.953-2.178-2.297-2.229h-1.396
		v4.968h-1.48V102.286z M281.369,107.51h1.515c1.582,0,2.586-0.868,2.586-2.178c0-1.48-1.072-2.127-2.638-2.144
		c-0.714,0-1.225,0.067-1.463,0.136V107.51z"/>
	<path fill="#FFFFFF" d="M294.977,108.224h-4.457v4.135h4.968v1.242h-6.448v-11.468h6.192v1.242h-4.712v3.624h4.457L294.977,108.224
		L294.977,108.224z"/>
	<path fill="#FFFFFF" d="M306.135,113.09c-0.664,0.238-1.974,0.63-3.522,0.63c-1.735,0-3.164-0.442-4.287-1.515
		c-0.986-0.952-1.6-2.483-1.6-4.271c0.018-3.42,2.365-5.921,6.21-5.921c1.327,0,2.365,0.29,2.858,0.528l-0.357,1.207
		c-0.612-0.271-1.378-0.493-2.534-0.493c-2.791,0-4.611,1.735-4.611,4.611c0,2.909,1.753,4.627,4.424,4.627
		c0.97,0,1.633-0.136,1.974-0.306v-3.42h-2.331v-1.191h3.777v5.514H306.135z"/>
	<path fill="#FFFFFF" d="M309.874,102.133v11.468h-1.48v-11.468H309.874z"/>
	<path fill="#FFFFFF" d="M322.259,107.748c0,3.947-2.399,6.039-5.325,6.039c-3.028,0-5.155-2.348-5.155-5.818
		c0-3.641,2.263-6.022,5.325-6.022C320.234,101.946,322.259,104.345,322.259,107.748z M313.36,107.935
		c0,2.45,1.327,4.645,3.658,4.645c2.348,0,3.675-2.16,3.675-4.764c0-2.279-1.191-4.661-3.658-4.661
		C314.586,103.154,313.36,105.417,313.36,107.935z"/>
	<path fill="#FFFFFF" d="M324.177,113.601v-11.468h1.616l3.676,5.802c0.851,1.345,1.514,2.553,2.059,3.727l0.033-0.018
		c-0.136-1.531-0.17-2.926-0.17-4.713v-4.798h1.396v11.468h-1.497l-3.642-5.819c-0.799-1.275-1.564-2.586-2.144-3.827l-0.051,0.017
		c0.085,1.446,0.119,2.824,0.119,4.729v4.9C325.572,113.601,324.177,113.601,324.177,113.601z"/>
	<path fill="#FFFFFF" d="M337.223,109.993l-1.191,3.607H334.5l3.896-11.468h1.786l3.913,11.468h-1.582l-1.225-3.607H337.223z
		 M340.982,108.837l-1.123-3.301c-0.255-0.749-0.425-1.43-0.596-2.093h-0.033c-0.171,0.681-0.357,1.378-0.579,2.075l-1.123,3.318
		h3.454L340.982,108.837L340.982,108.837z"/>
	<path fill="#FFFFFF" d="M345.776,102.133h1.48v10.226h4.9v1.242h-6.381v-11.468C345.775,102.133,345.776,102.133,345.776,102.133z"
		/>
	<path fill="#FFFFFF" d="M183.814,122.202c-1.242,1.668-2.145,3.88-2.145,6.959c0,3.028,0.937,5.206,2.145,6.907h-1.174
		c-1.072-1.412-2.229-3.59-2.229-6.907c0.018-3.352,1.157-5.529,2.229-6.959C182.64,122.202,183.814,122.202,183.814,122.202z"/>
	<path fill="#FFFFFF" d="M185.445,122.543h6.176v1.242h-4.695v3.811h4.339v1.226h-4.339v5.188h-1.48L185.445,122.543
		L185.445,122.543z"/>
	<path fill="#FFFFFF" d="M199.666,128.634h-4.457v4.134h4.968v1.242h-6.448v-11.467h6.192v1.242h-4.712v3.624h4.457V128.634z"/>
	<path fill="#FFFFFF" d="M202.096,122.696c0.902-0.137,1.974-0.238,3.147-0.238c2.127,0,3.642,0.493,4.646,1.429
		c1.021,0.936,1.616,2.263,1.616,4.117c0,1.872-0.579,3.403-1.65,4.458c-1.072,1.071-2.842,1.65-5.07,1.65
		c-1.055,0-1.939-0.051-2.688-0.137L202.096,122.696L202.096,122.696z M203.576,132.836c0.374,0.068,0.919,0.085,1.497,0.085
		c3.165,0,4.883-1.77,4.883-4.865c0.018-2.705-1.514-4.424-4.645-4.424c-0.766,0-1.344,0.068-1.735,0.153L203.576,132.836
		L203.576,132.836z"/>
	<path fill="#FFFFFF" d="M219.361,128.634h-4.458v4.134h4.968v1.242h-6.448v-11.467h6.193v1.242h-4.713v3.624h4.458V128.634z"/>
	<path fill="#FFFFFF" d="M221.791,122.696c0.748-0.153,1.82-0.238,2.841-0.238c1.583,0,2.604,0.289,3.318,0.936
		c0.578,0.511,0.901,1.293,0.901,2.178c0,1.515-0.953,2.518-2.161,2.927v0.051c0.885,0.306,1.412,1.123,1.685,2.313
		c0.374,1.6,0.646,2.705,0.885,3.147h-1.531c-0.188-0.323-0.442-1.31-0.766-2.739c-0.34-1.582-0.953-2.178-2.297-2.229h-1.395v4.968
		h-1.48L221.791,122.696L221.791,122.696z M223.271,127.919h1.514c1.582,0,2.586-0.867,2.586-2.178c0-1.479-1.071-2.127-2.637-2.144
		c-0.715,0-1.226,0.068-1.463,0.136L223.271,127.919L223.271,127.919z"/>
	<path fill="#FFFFFF" d="M229.988,136.068c1.208-1.684,2.144-3.896,2.144-6.958c0-3.046-0.918-5.224-2.144-6.908h1.157
		c1.089,1.396,2.229,3.573,2.229,6.925c0,3.335-1.14,5.495-2.229,6.941L229.988,136.068L229.988,136.068z"/>
</g>
<g>
	<path fill="#FFFFFF" d="M183.423,164.794l-1.293,6.789c-0.085,0.477-0.137,0.97-0.137,1.446c0,1.463,0.852,2.211,2.127,2.211
		c1.565,0,2.723-1.055,3.199-3.623l1.31-6.823h1.412l-1.31,6.856c-0.664,3.42-2.365,4.798-4.798,4.798
		c-1.889,0-3.353-1.021-3.353-3.386c0-0.493,0.052-1.055,0.153-1.582l1.276-6.687L183.423,164.794L183.423,164.794z"/>
	<path fill="#FFFFFF" d="M190.36,176.262l1.105-5.836c0.188-0.919,0.29-1.719,0.392-2.398h1.259l-0.204,1.616h0.034
		c0.731-1.157,1.838-1.804,3.046-1.804c0.986,0,2.093,0.562,2.093,2.297c0,0.357-0.068,0.885-0.153,1.327l-0.919,4.798h-1.412
		l0.901-4.747c0.068-0.323,0.119-0.715,0.119-1.055c0-0.834-0.323-1.446-1.293-1.446c-1.004,0-2.433,1.208-2.807,3.25l-0.749,3.998
		L190.36,176.262L190.36,176.262z"/>
	<path fill="#FFFFFF" d="M204.904,176.262c0-0.493,0.085-1.276,0.188-2.127h-0.034c-0.902,1.701-2.024,2.313-3.199,2.313
		c-1.445,0-2.364-1.156-2.364-2.722c0-2.858,2.109-5.887,5.699-5.887c0.783,0,1.65,0.136,2.212,0.323l-0.834,4.287
		c-0.271,1.43-0.391,2.893-0.357,3.812L204.904,176.262L204.904,176.262z M205.823,169.082c-0.204-0.052-0.511-0.119-0.987-0.119
		c-2.126,0-3.861,2.229-3.879,4.509c0,0.918,0.323,1.82,1.412,1.82c1.174,0,2.569-1.531,2.978-3.727L205.823,169.082z"/>
	<path fill="#FFFFFF" d="M211.416,176.262l1.105-5.836c0.171-0.919,0.29-1.719,0.375-2.398h1.242l-0.222,1.548h0.051
		c0.766-1.14,1.804-1.735,2.893-1.735c1.259,0,1.854,0.8,1.923,1.837c0.731-1.19,1.786-1.82,3.028-1.837
		c0.952,0,1.99,0.612,1.99,2.16c0,0.392-0.051,0.937-0.136,1.396l-0.919,4.866h-1.378l0.885-4.747
		c0.067-0.307,0.119-0.731,0.119-1.072c0-0.867-0.323-1.429-1.242-1.429c-1.021,0-2.229,1.191-2.569,3.028l-0.8,4.22h-1.36
		l0.918-4.832c0.068-0.357,0.103-0.681,0.103-1.004c0-0.697-0.188-1.412-1.225-1.412c-1.038,0-2.314,1.361-2.638,3.113l-0.766,4.135
		h-1.377L211.416,176.262L211.416,176.262z"/>
	<path fill="#FFFFFF" d="M230.619,176.262c0-0.493,0.086-1.276,0.188-2.127h-0.034c-0.901,1.701-2.024,2.313-3.198,2.313
		c-1.446,0-2.365-1.156-2.365-2.722c0-2.858,2.11-5.887,5.7-5.887c0.782,0,1.65,0.136,2.212,0.323l-0.834,4.287
		c-0.272,1.43-0.392,2.893-0.357,3.812L230.619,176.262L230.619,176.262z M231.538,169.082c-0.204-0.052-0.51-0.119-0.986-0.119
		c-2.127,0-3.862,2.229-3.879,4.509c0,0.918,0.323,1.82,1.412,1.82c1.174,0,2.568-1.531,2.977-3.727L231.538,169.082z"/>
	<path fill="#FFFFFF" d="M234.036,176.262l1.105-5.836c0.188-0.919,0.29-1.719,0.392-2.398h1.259l-0.204,1.616h0.034
		c0.731-1.157,1.838-1.804,3.046-1.804c0.986,0,2.093,0.562,2.093,2.297c0,0.357-0.068,0.885-0.153,1.327l-0.919,4.798h-1.412
		l0.901-4.747c0.068-0.323,0.119-0.715,0.119-1.055c0-0.834-0.323-1.446-1.293-1.446c-1.004,0-2.433,1.208-2.807,3.25l-0.749,3.998
		L234.036,176.262L234.036,176.262z"/>
	<path fill="#FFFFFF" d="M249.056,175.785c-0.612,0.357-1.616,0.646-2.722,0.646c-2.178,0-3.131-1.48-3.131-3.301
		c0-2.483,1.838-5.291,4.492-5.291c1.564,0,2.415,0.936,2.415,2.109c0,2.161-2.433,2.739-5.478,2.688
		c-0.068,0.357-0.018,1.123,0.17,1.565c0.323,0.731,0.986,1.105,1.837,1.105c0.97,0,1.702-0.306,2.212-0.578L249.056,175.785z
		 M247.49,168.945c-1.344,0-2.348,1.311-2.688,2.604c2.212,0.017,3.947-0.272,3.947-1.549
		C248.75,169.32,248.239,168.945,247.49,168.945z"/>
	<path fill="#FFFFFF" d="M250.823,176.262l1.003-5.309c0.205-1.071,0.341-2.16,0.426-2.926h1.242
		c-0.068,0.578-0.137,1.156-0.222,1.786h0.052c0.527-1.123,1.412-1.974,2.518-1.974c0.119,0,0.289,0.017,0.392,0.034l-0.272,1.395
		c-0.085-0.017-0.222-0.033-0.374-0.033c-1.226,0-2.314,1.479-2.672,3.402l-0.68,3.624h-1.413L250.823,176.262L250.823,176.262z"/>
	<path fill="#FFFFFF" d="M261.437,176.262c0-0.493,0.086-1.276,0.188-2.127h-0.034c-0.901,1.701-2.024,2.313-3.198,2.313
		c-1.446,0-2.365-1.156-2.365-2.722c0-2.858,2.11-5.887,5.7-5.887c0.782,0,1.65,0.136,2.212,0.323l-0.834,4.287
		c-0.272,1.43-0.392,2.893-0.357,3.812L261.437,176.262L261.437,176.262z M262.355,169.082c-0.204-0.052-0.51-0.119-0.986-0.119
		c-2.127,0-3.862,2.229-3.879,4.509c0,0.918,0.323,1.82,1.412,1.82c1.174,0,2.568-1.531,2.977-3.727L262.355,169.082z"/>
	<path fill="#FFFFFF" d="M276.711,164.182l-1.804,9.477c-0.17,0.851-0.306,1.804-0.357,2.604h-1.293l0.222-1.634h-0.034
		c-0.749,1.174-1.786,1.82-2.961,1.82c-1.599,0-2.467-1.31-2.467-2.994c0-2.926,2.178-5.614,5.087-5.614
		c0.527,0,1.106,0.119,1.464,0.289l0.731-3.947h1.412L276.711,164.182L276.711,164.182z M274.346,169.32
		c-0.289-0.188-0.766-0.341-1.361-0.341c-1.973,0-3.504,2.093-3.504,4.287c0,0.987,0.34,2.025,1.548,2.025
		c1.089,0,2.398-1.242,2.756-3.097L274.346,169.32z"/>
	<path fill="#FFFFFF" d="M282.815,175.785c-0.612,0.357-1.616,0.646-2.722,0.646c-2.178,0-3.131-1.48-3.131-3.301
		c0-2.483,1.838-5.291,4.492-5.291c1.564,0,2.415,0.936,2.415,2.109c0,2.161-2.433,2.739-5.478,2.688
		c-0.068,0.357-0.018,1.123,0.17,1.565c0.323,0.731,0.986,1.105,1.837,1.105c0.97,0,1.702-0.306,2.212-0.578L282.815,175.785z
		 M281.25,168.945c-1.344,0-2.348,1.311-2.688,2.604c2.212,0.017,3.947-0.272,3.947-1.549
		C282.51,169.32,281.999,168.945,281.25,168.945z"/>
	<path fill="#FFFFFF" d="M287.678,176.262l2.297-12.08h1.412l-1.021,5.309h0.034c0.697-1.004,1.701-1.65,2.943-1.65
		c0.936,0,2.041,0.578,2.041,2.212c0,0.442-0.051,0.97-0.136,1.395l-0.919,4.815h-1.412l0.919-4.747
		c0.051-0.307,0.102-0.681,0.102-1.14c0-0.766-0.357-1.361-1.275-1.361c-1.089,0-2.467,1.276-2.808,3.131l-0.766,4.117h-1.411
		L287.678,176.262L287.678,176.262z"/>
	<path fill="#FFFFFF" d="M302.221,176.262c0-0.493,0.086-1.276,0.188-2.127h-0.034c-0.901,1.701-2.024,2.313-3.198,2.313
		c-1.446,0-2.365-1.156-2.365-2.722c0-2.858,2.11-5.887,5.7-5.887c0.782,0,1.65,0.136,2.212,0.323l-0.834,4.287
		c-0.272,1.43-0.392,2.893-0.357,3.812L302.221,176.262L302.221,176.262z M303.14,169.082c-0.204-0.052-0.51-0.119-0.986-0.119
		c-2.127,0-3.862,2.229-3.879,4.509c0,0.918,0.323,1.82,1.412,1.82c1.174,0,2.568-1.531,2.977-3.727L303.14,169.082z"/>
	<path fill="#FFFFFF" d="M311.304,175.938c-0.426,0.204-1.276,0.493-2.383,0.493c-2.126,0-3.164-1.429-3.164-3.182
		c0-2.808,2.075-5.394,5.036-5.394c0.766,0,1.463,0.222,1.719,0.357l-0.409,1.123c-0.323-0.153-0.782-0.307-1.395-0.307
		c-2.144,0-3.488,2.11-3.488,4.05c0,1.327,0.698,2.194,2.042,2.194c0.834,0,1.48-0.255,1.905-0.459L311.304,175.938z"/>
	<path fill="#FFFFFF" d="M318.616,175.785c-0.612,0.357-1.616,0.646-2.722,0.646c-2.178,0-3.131-1.48-3.131-3.301
		c0-2.483,1.838-5.291,4.492-5.291c1.564,0,2.415,0.936,2.415,2.109c0,2.161-2.433,2.739-5.478,2.688
		c-0.068,0.357-0.018,1.123,0.17,1.565c0.323,0.731,0.986,1.105,1.837,1.105c0.97,0,1.702-0.306,2.212-0.578L318.616,175.785z
		 M317.051,168.945c-1.344,0-2.348,1.311-2.688,2.604c2.212,0.017,3.947-0.272,3.947-1.549
		C318.311,169.32,317.8,168.945,317.051,168.945z"/>
	<path fill="#FFFFFF" d="M320.384,176.262l1.003-5.309c0.205-1.071,0.341-2.16,0.426-2.926h1.242
		c-0.068,0.578-0.137,1.156-0.222,1.786h0.052c0.527-1.123,1.412-1.974,2.518-1.974c0.119,0,0.289,0.017,0.392,0.034l-0.272,1.395
		c-0.085-0.017-0.222-0.033-0.374-0.033c-1.226,0-2.314,1.479-2.672,3.402l-0.68,3.624h-1.413L320.384,176.262L320.384,176.262z"/>
	<path fill="#FFFFFF" d="M335.539,170.868h-4.168l-0.783,4.186h4.696l-0.238,1.208h-6.108l2.178-11.468h5.853l-0.237,1.208h-4.424
		l-0.697,3.675h4.168L335.539,170.868z"/>
	<path fill="#FFFFFF" d="M344.809,168.027l-1.105,5.835c-0.17,0.919-0.289,1.719-0.375,2.399h-1.275l0.221-1.549h-0.034
		c-0.731,1.072-1.82,1.735-2.909,1.735c-1.055,0-2.16-0.51-2.16-2.382c0-0.391,0.051-0.833,0.153-1.378l0.885-4.661h1.412
		l-0.868,4.593c-0.103,0.46-0.153,0.852-0.153,1.208c0,0.852,0.357,1.43,1.327,1.43c1.021,0,2.331-1.191,2.671-3.012l0.8-4.219
		L344.809,168.027L344.809,168.027z"/>
	<path fill="#FFFFFF" d="M345.725,176.262l1.003-5.309c0.205-1.071,0.341-2.16,0.426-2.926h1.242
		c-0.068,0.578-0.137,1.156-0.222,1.786h0.052c0.527-1.123,1.412-1.974,2.518-1.974c0.119,0,0.289,0.017,0.392,0.034l-0.272,1.395
		c-0.085-0.017-0.222-0.033-0.374-0.033c-1.226,0-2.314,1.479-2.672,3.402l-0.68,3.624h-1.413L345.725,176.262L345.725,176.262z"/>
	<path fill="#FFFFFF" d="M358.926,171.276c0,2.535-1.804,5.172-4.561,5.172c-2.059,0-3.215-1.531-3.215-3.386
		c0-2.705,1.889-5.223,4.56-5.223C357.938,167.84,358.926,169.524,358.926,171.276z M352.613,173.012
		c0,1.344,0.731,2.314,1.939,2.314c1.667,0,2.927-2.145,2.927-4.066c0-0.953-0.442-2.297-1.923-2.297
		C353.787,168.963,352.597,171.123,352.613,173.012z"/>
	<path fill="#FFFFFF" d="M359.178,179.63l1.65-8.677c0.17-0.986,0.34-2.093,0.459-2.926h1.293l-0.238,1.548h0.034
		c0.749-1.072,1.838-1.735,2.96-1.735c1.787,0,2.535,1.463,2.535,2.978c0,2.892-2.075,5.631-4.814,5.631
		c-0.885,0-1.463-0.187-1.786-0.374h-0.034l-0.664,3.556h-1.395V179.63z M361.491,174.884c0.357,0.289,0.901,0.459,1.565,0.459
		c1.82,0,3.352-2.263,3.352-4.424c0-0.867-0.392-1.905-1.582-1.905c-1.106,0-2.501,1.276-2.927,3.573L361.491,174.884z"/>
	<path fill="#FFFFFF" d="M374.299,176.262c0-0.493,0.085-1.276,0.188-2.127h-0.034c-0.901,1.701-2.024,2.313-3.198,2.313
		c-1.446,0-2.365-1.156-2.365-2.722c0-2.858,2.109-5.887,5.699-5.887c0.783,0,1.65,0.136,2.212,0.323l-0.833,4.287
		c-0.272,1.43-0.392,2.893-0.357,3.812L374.299,176.262L374.299,176.262z M375.218,169.082c-0.204-0.052-0.511-0.119-0.986-0.119
		c-2.127,0-3.862,2.229-3.88,4.509c0,0.918,0.323,1.82,1.412,1.82c1.174,0,2.569-1.531,2.978-3.727L375.218,169.082z"/>
</g>
<g>
	<polygon fill="#FFF100" points="85.495,37.849 91.757,33.279 98.019,37.849 95.636,30.459 101.996,25.889 94.156,25.889 
		91.757,18.409 89.357,25.897 81.522,25.889 87.878,30.459 	"/>
	<polygon fill="#FFF100" points="53.089,46.555 59.351,41.985 65.609,46.555 63.23,39.165 69.586,34.595 61.746,34.595 
		59.347,27.107 56.948,34.603 49.112,34.595 55.468,39.165 	"/>
	<polygon fill="#FFF100" points="35.639,50.872 33.24,58.368 25.404,58.36 31.76,62.93 29.377,70.32 35.639,65.75 41.901,70.32 
		39.519,62.93 45.875,58.36 38.039,58.36 	"/>
	<polygon fill="#FFF100" points="26.941,98.115 33.199,102.685 30.82,95.295 37.176,90.725 29.341,90.725 26.941,83.237 
		24.542,90.741 16.702,90.725 23.062,95.295 20.679,102.685 	"/>
	<polygon fill="#FFF100" points="38.039,123.188 35.639,115.699 33.24,123.196 25.404,123.188 31.76,127.758 29.377,135.148 
		35.639,130.57 41.901,135.148 39.519,127.758 45.875,123.188 	"/>
	<polygon fill="#FFF100" points="61.795,146.944 59.396,139.464 57.001,146.952 49.161,146.944 55.517,151.514 53.138,158.904 
		59.4,154.334 65.658,158.904 63.279,151.514 69.635,146.944 	"/>
	<polygon fill="#FFF100" points="94.16,155.553 91.761,148.064 89.366,155.561 81.526,155.553 87.882,160.122 85.503,167.513 
		91.765,162.943 98.023,167.513 95.64,160.122 102,155.553 	"/>
	<polygon fill="#FFF100" points="126.525,146.944 124.13,139.464 121.726,146.952 113.895,146.944 120.247,151.514 117.868,158.904 
		124.13,154.334 130.392,158.904 128.005,151.514 134.365,146.944 	"/>
	<polygon fill="#FFF100" points="150.29,123.188 147.886,115.699 145.483,123.196 137.651,123.188 144.011,127.758 141.624,135.148 
		147.886,130.57 154.148,135.148 151.761,127.758 158.121,123.188 	"/>
	<polygon fill="#FFF100" points="166.73,90.635 158.89,90.635 156.486,83.147 154.091,90.643 146.251,90.635 152.611,95.205 
		150.233,102.595 156.486,98.017 162.748,102.595 160.37,95.205 	"/>
	<polygon fill="#FFF100" points="141.624,70.222 147.886,65.652 154.148,70.222 151.761,62.832 158.121,58.27 150.29,58.27 
		147.886,50.782 145.483,58.278 137.651,58.27 144.011,62.832 	"/>
	<polygon fill="#FFF100" points="124.22,27.115 121.824,34.612 113.984,34.595 120.336,39.173 117.958,46.563 124.228,41.985 
		130.482,46.563 128.103,39.173 134.463,34.595 126.615,34.595 	"/>
</g>
</svg>
