<?xml version="1.0" encoding="utf-8"?>
<!-- Generator: Adobe Illustrator 19.2.1, SVG Export Plug-In . SVG Version: 6.00 Build 0)  -->
<svg version="1.1" id="Capa_1" xmlns="http://www.w3.org/2000/svg" xmlns:xlink="http://www.w3.org/1999/xlink" x="0px" y="0px"
	 viewBox="0 0 280 140" style="enable-background:new 0 0 280 140;" xml:space="preserve">
<style type="text/css">
	.st0{fill:#2458C6;}
	.st1{fill:#808080;}
</style>
<path class="st0" d="M76,75.1c0,0.4-13.2,0.2-15.6,0.2c-8.7,0-17.4-3-23.4-8V133l19.5-19.6L76,133V75.1L76,75.1L76,75.1z"/>
<g>
	<path d="M76.6,57.2c2.9,2,5.6,3.5,8.1,4.4L82.8,66c-3.4-1.2-6.8-3.2-10.2-5.8c-3.5,2-7.4,3-11.7,3c-4.3,0-8.2-1-11.7-3.1
		c-3.5-2.1-6.2-5-8.1-8.8c-1.9-3.8-2.8-8-2.8-12.7c0-4.7,1-9,2.9-12.8c1.9-3.9,4.6-6.8,8.1-8.8s7.5-3,11.8-3c4.4,0,8.4,1,11.9,3.1
		c3.5,2.1,6.2,5,8.1,8.8s2.8,8,2.8,12.7c0,3.9-0.6,7.4-1.8,10.6C80.8,52.1,79,54.9,76.6,57.2z M62.7,49.1c3.6,1,6.6,2.5,9,4.5
		c3.7-3.4,5.6-8.5,5.6-15.2c0-3.9-0.7-7.2-2-10.1c-1.3-2.9-3.2-5.1-5.7-6.7C67,20,64.2,19.2,61,19.2c-4.7,0-8.6,1.6-11.7,4.8
		c-3.1,3.2-4.6,8-4.6,14.4c0,6.2,1.5,10.9,4.6,14.3c3.1,3.3,7,5,11.7,5c2.3,0,4.4-0.4,6.4-1.3c-2-1.3-4-2.2-6.2-2.7L62.7,49.1z"/>
	<path d="M114.1,62.3v-5.1c-2.7,3.9-6.3,5.8-10.9,5.8c-2,0-3.9-0.4-5.7-1.2c-1.8-0.8-3.1-1.8-3.9-2.9c-0.9-1.2-1.5-2.6-1.8-4.3
		c-0.2-1.1-0.4-3-0.4-5.5V27.8h5.8v19.1c0,3.1,0.1,5.1,0.4,6.2c0.4,1.5,1.1,2.7,2.3,3.6s2.7,1.3,4.4,1.3c1.8,0,3.4-0.4,4.9-1.3
		c1.5-0.9,2.6-2.1,3.3-3.7c0.6-1.5,1-3.8,1-6.7V27.8h5.8v34.5H114.1z"/>
	<path d="M151,58c-2.2,1.8-4.3,3.1-6.3,3.9c-2,0.8-4.2,1.1-6.4,1.1c-3.8,0-6.7-0.9-8.7-2.8c-2-1.9-3.1-4.2-3.1-7.1
		c0-1.7,0.4-3.2,1.2-4.6s1.8-2.5,3-3.4c1.2-0.8,2.6-1.5,4.2-1.9c1.1-0.3,2.9-0.6,5.2-0.9c4.7-0.6,8.2-1.2,10.4-2c0-0.8,0-1.3,0-1.5
		c0-2.4-0.6-4.1-1.7-5c-1.5-1.3-3.7-2-6.7-2c-2.7,0-4.8,0.5-6.1,1.4c-1.3,1-2.3,2.7-2.9,5.1l-5.7-0.8c0.5-2.4,1.4-4.4,2.6-5.9
		c1.2-1.5,2.9-2.7,5.2-3.5s4.9-1.2,7.8-1.2c2.9,0,5.3,0.3,7.2,1c1.8,0.7,3.2,1.6,4.1,2.6c0.9,1.1,1.5,2.4,1.8,4
		c0.2,1,0.3,2.8,0.3,5.4v7.8c0,5.4,0.1,8.9,0.4,10.3c0.2,1.4,0.7,2.8,1.5,4.1h-6.1C151.5,61.1,151.1,59.6,151,58z M150.5,45
		c-2.1,0.9-5.3,1.6-9.5,2.2c-2.4,0.3-4.1,0.7-5.1,1.2c-1,0.4-1.8,1.1-2.3,1.9c-0.5,0.8-0.8,1.8-0.8,2.8c0,1.6,0.6,2.9,1.8,3.9
		c1.2,1,2.9,1.6,5.2,1.6c2.3,0,4.3-0.5,6-1.5c1.8-1,3-2.3,3.9-4c0.6-1.3,0.9-3.3,0.9-5.8V45z"/>
	<path d="M165.3,62.3V14.7h5.8v47.6H165.3z"/>
	<path d="M180.3,21.4v-6.7h5.8v6.7H180.3z M180.3,62.3V27.8h5.8v34.5H180.3z"/>
	<path d="M207.8,57l0.8,5.2c-1.6,0.3-3.1,0.5-4.4,0.5c-2.1,0-3.8-0.3-4.9-1c-1.2-0.7-2-1.6-2.5-2.6c-0.5-1.1-0.7-3.4-0.7-6.9V32.3
		h-4.3v-4.5h4.3v-8.5l5.8-3.5v12h5.9v4.5h-5.9v20.2c0,1.7,0.1,2.7,0.3,3.2c0.2,0.5,0.5,0.9,1,1.1c0.5,0.3,1.1,0.4,2,0.4
		C205.8,57.3,206.7,57.2,207.8,57z"/>
	<path d="M213.2,75.6l-0.7-5.5c1.3,0.3,2.4,0.5,3.3,0.5c1.3,0,2.3-0.2,3.1-0.6c0.8-0.4,1.4-1,1.9-1.8c0.4-0.6,1-2,1.8-4.4
		c0.1-0.3,0.3-0.8,0.5-1.4l-13.1-34.6h6.3l7.2,20c0.9,2.5,1.8,5.2,2.5,8c0.7-2.7,1.5-5.3,2.4-7.9l7.4-20.1h5.8l-13.1,35.1
		c-1.4,3.8-2.5,6.4-3.3,7.8c-1,1.9-2.2,3.3-3.6,4.2c-1.3,0.9-2.9,1.3-4.8,1.3C215.9,76.3,214.6,76,213.2,75.6z"/>
</g>
<g>
	<path class="st1" d="M107.1,111.6l4.5-0.7c0.3,1.8,1,3.2,2.1,4.2c1.2,1,2.8,1.5,4.9,1.5c2.1,0,3.7-0.4,4.7-1.3c1-0.9,1.5-1.9,1.5-3
		c0-1-0.4-1.9-1.3-2.5c-0.6-0.4-2.2-0.9-4.7-1.6c-3.4-0.9-5.7-1.6-7-2.2c-1.3-0.6-2.3-1.5-3-2.6s-1-2.3-1-3.6c0-1.2,0.3-2.3,0.8-3.4
		c0.6-1,1.3-1.9,2.3-2.6c0.7-0.5,1.7-1,2.9-1.3c1.2-0.4,2.5-0.5,4-0.5c2.1,0,4,0.3,5.6,0.9c1.6,0.6,2.8,1.4,3.5,2.5
		c0.8,1,1.3,2.5,1.6,4.2l-4.5,0.6c-0.2-1.4-0.8-2.5-1.8-3.3c-1-0.8-2.4-1.2-4.1-1.2c-2.1,0-3.6,0.3-4.5,1c-0.9,0.7-1.3,1.5-1.3,2.5
		c0,0.6,0.2,1.1,0.6,1.6c0.4,0.5,1,0.9,1.8,1.2c0.5,0.2,1.8,0.6,4,1.2c3.2,0.9,5.5,1.6,6.8,2.1c1.3,0.6,2.3,1.4,3,2.4
		s1.1,2.4,1.1,3.9c0,1.5-0.4,3-1.3,4.3c-0.9,1.4-2.2,2.4-3.9,3.1c-1.7,0.7-3.6,1.1-5.7,1.1c-3.5,0-6.2-0.7-8-2.2
		C108.8,116.6,107.6,114.5,107.1,111.6z"/>
	<path class="st1" d="M133.3,106.1c0-5,1.4-8.8,4.2-11.2c2.3-2,5.2-3,8.5-3c3.7,0,6.8,1.2,9.1,3.7c2.4,2.4,3.5,5.8,3.5,10.1
		c0,3.5-0.5,6.2-1.6,8.2c-1,2-2.6,3.6-4.6,4.7c-2,1.1-4.2,1.7-6.5,1.7c-3.8,0-6.8-1.2-9.2-3.7S133.3,110.7,133.3,106.1z M138,106.1
		c0,3.5,0.8,6.1,2.3,7.8c1.5,1.7,3.4,2.6,5.7,2.6c2.3,0,4.2-0.9,5.7-2.6s2.3-4.4,2.3-8c0-3.4-0.8-5.9-2.3-7.6s-3.4-2.6-5.7-2.6
		c-2.3,0-4.2,0.9-5.7,2.6C138.7,100,138,102.6,138,106.1z"/>
	<path class="st1" d="M165.1,119.7V96.1h-4v-3.6h4v-2.9c0-1.8,0.2-3.2,0.5-4.1c0.4-1.2,1.2-2.2,2.3-2.9c1.1-0.7,2.7-1.1,4.7-1.1
		c1.3,0,2.7,0.2,4.3,0.5l-0.7,4c-1-0.2-1.8-0.3-2.7-0.3c-1.4,0-2.4,0.3-3,0.9c-0.6,0.6-0.9,1.7-0.9,3.4v2.5h5.3v3.6h-5.3v23.6H165.1
		z"/>
	<path class="st1" d="M188.4,115.6l0.7,4.1c-1.3,0.3-2.4,0.4-3.5,0.4c-1.7,0-3-0.3-3.9-0.8c-0.9-0.5-1.6-1.2-1.9-2.1
		c-0.4-0.9-0.6-2.7-0.6-5.4V96.1h-3.4v-3.6h3.4v-6.7l4.6-2.8v9.5h4.6v3.6h-4.6V112c0,1.3,0.1,2.2,0.2,2.5c0.2,0.4,0.4,0.7,0.8,0.9
		c0.4,0.2,0.9,0.3,1.6,0.3C186.9,115.7,187.6,115.7,188.4,115.6z"/>
	<path class="st1" d="M188.7,130.1v-3.3H219v3.3H188.7z"/>
</g>
</svg>
